<?xml version="1.0" standalone="no"?>
<!DOCTYPE svg PUBLIC "-//W3C//DTD SVG 1.1//EN" "http://www.w3.org/Graphics/SVG/1.1/DTD/svg11.dtd" >
<svg xmlns="http://www.w3.org/2000/svg">
<metadata></metadata>
<defs>
<font id="museo_slab700_italic" horiz-adv-x="1159" >
<font-face units-per-em="2048" ascent="1536" descent="-512" />
<missing-glyph horiz-adv-x="512" />
<glyph unicode="&#xfb01;" horiz-adv-x="1368" d="M104 0l166 850h-161l36 194h162l8 43q14 71 41 129t60.5 97t76 69t82.5 47t84 27.5t77.5 13.5t66.5 3q29 0 74 -5l28 -4l-43 -209l-18 5q-14 2 -49 2q-185 0 -220 -168l-10 -50h676l-139 -706q-6 -30 -6 -64q0 -46 21.5 -65t64.5 -19q20 0 32 3q6 2 13 2l-37 -195l-29 -4 q-18 -2 -63 -2t-77.5 3t-72 15.5t-64.5 35t-42 64t-17 99.5q0 29 15 106l104 533h-416l-163 -850h-261zM1014 1223l45 231h264l-47 -231h-262z" />
<glyph unicode="&#xfb02;" horiz-adv-x="1382" d="M104 0l164 850h-159l36 194h160l8 33q83 414 586 414q152 0 299 -31l123 -30l-207 -1074q-10 -52 -10 -75q0 -45 21.5 -61.5t66.5 -16.5q8 0 20 1t15 1h12l-41 -207l-29 -4q-16 -2 -63 -2q-43 0 -76.5 4t-71.5 18.5t-63.5 38.5t-42 67.5t-16.5 102.5q0 47 12 109l182 944 q-3 1 -18.5 4t-24.5 4q-41 8 -117 8q-254 0 -297 -213l-8 -35h238l-37 -194h-238l-163 -850h-261z" />
<glyph unicode="&#xfb03;" horiz-adv-x="2068" d="M104 0l164 850h-159l36 194h160l10 43q14 71 41 129t60.5 97t76 69t82.5 47t84 27.5t77.5 13.5t66.5 3q29 0 74 -5l28 -4l-43 -209l-18 5q-14 2 -49 2q-185 0 -220 -168l-10 -50h441l8 43q16 82 49 147t77 105.5t91 68.5t99.5 41.5t92.5 18.5t80 5q27 0 72 -5l29 -4 l-43 -209l-19 5q-14 2 -49 2q-182 0 -217 -168l-10 -50h673l-137 -706q-8 -31 -8 -64q0 -45 22.5 -64.5t65.5 -19.5q21 0 33 3q6 2 12 2l-39 -195l-28 -4q-16 -2 -62 -2q-45 0 -77.5 3t-71.5 15.5t-64 35t-42 64t-17 99.5q0 45 12 106l104 533h-413l-166 -850h-260l166 850 h-441l-163 -850h-261zM1712 1223l47 231h262l-45 -231h-264z" />
<glyph unicode="&#xfb04;" horiz-adv-x="2080" d="M104 0l164 850h-159l36 194h160l10 43q14 71 41 129t60.5 97t76 69t82.5 47t84 27.5t77.5 13.5t66.5 3q29 0 74 -5l28 -4l-43 -209l-18 5q-14 2 -49 2q-185 0 -220 -168l-10 -50h441l6 33q83 414 585 414q154 0 301 -31l123 -30l-209 -1074q-8 -36 -8 -75q0 -45 21 -61.5 t65 -16.5q8 0 20 1t15 1h14l-43 -207l-26 -4q-16 -2 -64 -2q-43 0 -77 4t-72 18.5t-63.5 38.5t-42.5 67.5t-17 102.5q0 47 12 109l185 944q-3 1 -18.5 4t-24.5 4q-41 8 -119 8q-254 0 -297 -213l-6 -35h235l-37 -194h-235l-166 -850h-260l166 850h-441l-163 -850h-261z" />
<glyph horiz-adv-x="2048" />
<glyph horiz-adv-x="2048" />
<glyph unicode="&#xd;" horiz-adv-x="2048" />
<glyph unicode=" "  horiz-adv-x="512" />
<glyph unicode="&#x09;" horiz-adv-x="512" />
<glyph unicode="&#xa0;" horiz-adv-x="512" />
<glyph unicode="!" horiz-adv-x="550" d="M31 0l49 244h252l-49 -244h-252zM123 420l180 1034h270l-223 -1034h-227z" />
<glyph unicode="&#x22;" horiz-adv-x="765" d="M201 1024l90 457h192l-88 -457h-194zM530 1024l88 457h193l-88 -457h-193z" />
<glyph unicode="#" horiz-adv-x="1460" d="M37 383l65 186h240l107 287h-236l68 188h235l152 410h213l-152 -410h281l151 410h213l-151 -410h241l-67 -188h-242l-106 -287h239l-67 -186h-240l-141 -383h-213l141 383h-281l-141 -383h-213l141 383h-237zM555 569h281l106 287h-280z" />
<glyph unicode="$" horiz-adv-x="1134" d="M4 203l150 170q47 -43 90 -68q109 -67 229 -67q67 0 129.5 21t106 66t43.5 103q0 48 -31.5 86.5t-82 67t-111.5 57t-122 62.5t-111.5 75t-82 104t-31.5 142q0 172 134.5 288t332.5 134l39 217h176l-39 -223q135 -16 248 -84q43 -25 80 -62l-137 -184q-40 34 -86 55 q-110 54 -215 54q-108 0 -188.5 -53t-80.5 -134q0 -46 32 -84t82.5 -66t112 -55.5t123 -61t112 -74t82.5 -103t32 -140.5q0 -171 -137.5 -298.5t-345.5 -139.5l-37 -215h-176l38 225q-155 22 -274 107q-45 32 -84 78z" />
<glyph unicode="%" horiz-adv-x="1656" d="M39 0l1372 1454h252l-1372 -1454h-252zM186 1120q0 88 53 171.5t141.5 135.5t184.5 52q133 0 217 -83t84 -208q0 -90 -55 -173.5t-143 -133.5t-181 -50q-134 0 -217.5 80.5t-83.5 208.5zM387 1128q0 -48 32 -78t87 -30q63 0 111.5 47t48.5 113q0 48 -33 79t-86 31 q-62 0 -111 -49t-49 -113zM838 262q0 91 53 174.5t140 134t183 50.5q135 0 219.5 -83t84.5 -208q0 -91 -55.5 -174t-143 -132t-180.5 -49q-134 0 -217.5 80t-83.5 207zM1038 272q0 -48 32 -78t87 -30q63 0 111.5 47t48.5 113q0 48 -33 79t-86 31q-62 0 -111 -49.5 t-49 -112.5z" />
<glyph unicode="&#x26;" horiz-adv-x="1370" d="M49 373q0 132 94 249t238 156v4q-39 19 -68 52q-69 77 -69 192q0 109 45 197t119 143t165.5 84t188.5 29q62 0 145 -17l60 -16l-99 -201l-30 6q-36 4 -68 4q-106 0 -184 -63t-78 -174q0 -68 42.5 -112t143.5 -44h234l37 197h260l-39 -197h188l-43 -213h-188l-33 -180 q-49 -248 -198 -371t-382 -123q-225 0 -353 110.5t-128 287.5zM326 395q0 -85 57 -135.5t156 -50.5q124 0 206.5 70.5t108.5 203.5l31 166h-246q-79 0 -148 -26t-117 -85.5t-48 -142.5z" />
<glyph unicode="'" horiz-adv-x="442" d="M201 1024l90 457h196l-88 -457h-198z" />
<glyph unicode="(" horiz-adv-x="684" d="M121 360q0 330 104 617t324 541h229q-430 -530 -430 -1164q0 -290 96 -549h-213q-110 273 -110 555z" />
<glyph unicode=")" horiz-adv-x="688" d="M-72 -195q428 534 428 1164q0 295 -94 549h211q113 -269 113 -555q0 -332 -104 -618t-326 -540h-228z" />
<glyph unicode="*" horiz-adv-x="999" d="M168 1069l113 217l227 -100l35 268h235l-71 -268l268 100l31 -223l-279 -70l-2 -4l129 -198l-201 -136l-102 228h-4l-182 -226l-170 140l211 209l2 4z" />
<glyph unicode="+" horiz-adv-x="1267" d="M61 483l37 203h445l94 485h211l-94 -485h442l-39 -203h-442l-94 -483h-211l94 483h-443z" />
<glyph unicode="," horiz-adv-x="577" d="M-123 -244l244 508h264l-305 -508h-203z" />
<glyph unicode="-" horiz-adv-x="954" d="M141 471l43 227h617l-43 -227h-617z" />
<glyph unicode="." horiz-adv-x="550" d="M31 0l49 262h260l-49 -262h-260z" />
<glyph unicode="/" horiz-adv-x="915" d="M-57 -86l833 1614h240l-836 -1614h-237z" />
<glyph unicode="0" horiz-adv-x="1290" d="M113 467q0 83 10 173t34 189.5t59 191.5t89 176t120 146t156.5 99t194.5 37q449 0 449 -490q0 -83 -10.5 -173t-34 -190t-59 -192t-89.5 -176.5t-120.5 -146.5t-156.5 -99t-194 -37q-448 0 -448 492zM383 475q0 -264 184 -264q78 0 144 54.5t109.5 138.5t74 188t44 202 t13.5 181q0 130 -43 199t-141 69q-76 0 -141.5 -53t-109 -136.5t-75 -187t-45.5 -203.5t-14 -188z" />
<glyph unicode="1" horiz-adv-x="1036" d="M-6 0l39 215h315l160 807q3 12 7 35t7 35l8 32h-4l-20 -22q-14 -16 -53 -51l-150 -123l-129 174l442 352h232l-242 -1239h314l-43 -215h-883z" />
<glyph unicode="2" horiz-adv-x="1216" d="M2 0q2 105 32.5 198t81.5 162t116 130.5t137 110t143.5 93.5t136 88t114.5 86t79.5 95.5t29.5 109.5q0 81 -51 125.5t-137 44.5q-112 0 -217 -90q-50 -41 -88 -90l-176 139q57 75 137 139q169 138 375 138q122 0 221 -43.5t159 -130t60 -201.5q0 -96 -43 -183 t-112.5 -152.5t-154 -125.5t-172 -112t-161.5 -101t-126.5 -104.5t-63.5 -110.5h481l37 184h229l-78 -399h-989z" />
<glyph unicode="3" horiz-adv-x="1189" d="M0 166l147 182q38 -38 86 -67q110 -70 228 -70q130 0 223.5 79.5t93.5 192.5q0 89 -67.5 139t-178.5 50q-41 0 -57 -2l-26 -4l-35 129l385 393q24 24 45 39q6 6 22 14v4q-18 0 -28 -2q-32 -4 -56 -4h-303l-35 -172h-229l76 387h915l-35 -186l-421 -424q55 -12 104.5 -35 t97 -62t75.5 -101t28 -140q0 -101 -43 -196.5t-119 -169.5t-189.5 -119.5t-244.5 -45.5q-177 0 -342 97q-65 39 -117 94z" />
<glyph unicode="4" horiz-adv-x="1263" d="M10 375l29 162l799 917h319l-168 -872h187l-39 -207h-189l-74 -375h-260l74 375h-678zM332 582h395l96 485q12 54 21 82l14 43h-6q-5 -10 -23 -37q-27 -39 -57 -74l-440 -495v-4z" />
<glyph unicode="5" horiz-adv-x="1181" d="M2 166l150 174q40 -40 81 -64q108 -65 220 -65q87 0 163.5 37t124 105t47.5 151q0 100 -68 154.5t-181 54.5q-91 0 -174 -31l-70 -31l-143 60l217 743h786l-76 -387h-229l35 172h-330l-80 -264q-10 -38 -18 -57l-8 -23h4q8 4 26.5 9.5t22.5 6.5q58 15 121 15 q192 0 316 -114t124 -306q0 -108 -50 -207t-133.5 -169.5t-197.5 -112.5t-238 -42q-178 0 -331 97q-63 39 -111 94z" />
<glyph unicode="6" horiz-adv-x="1251" d="M100 512q0 99 25.5 208t72.5 217t121 206t163.5 173t207 119t246.5 44q110 0 223 -33q44 -14 80 -33l-104 -213q-25 14 -60 23q-78 20 -147 20q-86 0 -163.5 -33t-136.5 -90t-103 -126t-74 -148h4q46 48 123.5 75t158.5 27q189 0 297.5 -115.5t108.5 -289.5 q0 -105 -39.5 -206.5t-109 -182t-176 -130t-230.5 -49.5q-216 0 -352 143t-136 394zM369 496q0 -114 67 -199.5t168 -85.5q116 0 192 93.5t76 221.5q0 93 -56 150t-169 57q-115 0 -196.5 -67.5t-81.5 -169.5z" />
<glyph unicode="7" horiz-adv-x="1142" d="M57 0l807 1169q9 14 24.5 32t18.5 22l17 18v4q-17 0 -27 -2q-32 -4 -66 -4h-401l-33 -172h-229l76 387h1020l-37 -184l-885 -1270h-285z" />
<glyph unicode="8" horiz-adv-x="1253" d="M59 362q0 64 22.5 124.5t53 103.5t79 88t80.5 68.5t79 54.5q-125 104 -125 243q0 81 35 158t99 139t163.5 100t218.5 38q197 0 317.5 -94t120.5 -252q0 -59 -22 -120t-47.5 -102.5t-69 -90.5t-61 -65t-48.5 -44q154 -108 154 -269q0 -90 -42.5 -174.5t-116.5 -149 t-183 -104t-234 -39.5q-215 0 -344 108.5t-129 278.5zM332 397q0 -90 59 -141t158 -51q111 0 199 62.5t88 166.5q0 28 -9 52t-27.5 45t-38.5 37.5t-51.5 34t-55.5 29.5t-62 30t-60 30q-26 -19 -42 -31.5t-50 -45t-54 -61.5t-37 -71.5t-17 -85.5zM508 1049q0 -23 7 -43.5 t16 -36.5t29 -34t33 -28t43.5 -27t44 -24t50.5 -25t49 -24q21 17 53.5 53.5t69.5 106t37 131.5q0 72 -48.5 111.5t-135.5 39.5q-106 0 -177 -57t-71 -143z" />
<glyph unicode="9" horiz-adv-x="1249" d="M63 41l103 213q26 -13 57 -21q86 -22 144 -22q86 0 164 33t137 90t103.5 126.5t74.5 149.5h-4q-47 -47 -125.5 -74.5t-159.5 -27.5q-188 0 -296.5 115t-108.5 286q0 84 24.5 166.5t73 155t114 128t154.5 88t189 32.5q216 0 351.5 -144t135.5 -395q0 -84 -18 -176.5 t-55 -186t-88.5 -181.5t-122.5 -164.5t-153 -133.5t-184.5 -90t-212.5 -33q-112 0 -217 33q-44 14 -80 33zM422 928q0 -91 55.5 -147t167.5 -56q115 0 198 66t83 167q0 115 -66 200t-168 85q-115 0 -192.5 -94t-77.5 -221z" />
<glyph unicode=":" horiz-adv-x="620" d="M59 0l52 262h262l-51 -262h-263zM213 780l51 264h260l-51 -264h-260z" />
<glyph unicode=";" horiz-adv-x="632" d="M-106 -244l239 508h268l-305 -508h-202zM233 780l52 264h254l-52 -264h-254z" />
<glyph unicode="&#x3c;" horiz-adv-x="1267" d="M92 502v168l985 438v-227l-710 -293v-4l710 -293v-228z" />
<glyph unicode="=" horiz-adv-x="1267" d="M125 274v201h1001v-201h-1001zM125 694v201h1001v-201h-1001z" />
<glyph unicode="&#x3e;" horiz-adv-x="1267" d="M186 63v228l709 293v4l-709 293v227l985 -438v-168z" />
<glyph unicode="?" horiz-adv-x="1003" d="M180 0l47 244h252l-47 -244h-252zM205 1352q58 41 112 65q144 66 279 66q172 0 287.5 -93t115.5 -251q0 -74 -24 -138.5t-63 -111.5t-86.5 -88t-96.5 -76.5t-91 -69t-73 -73.5t-39 -82l-16 -80h-250l19 98q12 64 42.5 120t70.5 96.5t86 77t89.5 69t79 65t57 72.5t21.5 84 q0 62 -46.5 101.5t-121.5 39.5q-84 0 -164 -43l-69 -43z" />
<glyph unicode="@" horiz-adv-x="1660" d="M47 377q0 172 74.5 333.5t199.5 281t299 191.5t363 72q122 0 215 -28.5t149.5 -80t84.5 -118.5t28 -147q0 -44 -10 -109l-92 -475h149l-37 -186h-540q-187 0 -292.5 95.5t-105.5 237.5q0 81 35.5 156t100 134.5t167 95.5t226.5 36h164q2 2 2 11v18q0 66 -78 109t-195 43 q-105 0 -204.5 -37.5t-178.5 -103t-139 -150t-92.5 -183t-32.5 -196.5q0 -193 121 -315.5t340 -122.5l-39 -199q-301 0 -491.5 176t-190.5 461zM793 457q0 -71 43.5 -115.5t119.5 -44.5h158l78 401h-154q-102 0 -173.5 -73t-71.5 -168z" />
<glyph unicode="A" horiz-adv-x="1490" d="M-92 0l39 201h131l680 1253h303l194 -1253h131l-38 -201h-537l39 201h143l-37 272h-458l-144 -272h144l-41 -201h-549zM600 682h334l-55 412q-5 33 -5 90v37h-6q-3 -17 -12 -37l-37 -90z" />
<glyph unicode="B" horiz-adv-x="1419" d="M-12 0l39 201h172l207 1050h-177l39 203h625q149 0 250 -37q97 -35 150 -112t53 -181q0 -117 -64 -211.5t-174 -146.5v-4q176 -68 176 -287q0 -149 -81 -261.5t-214 -168.5q-112 -45 -274 -45h-727zM471 215h258q101 0 172 47q50 37 81.5 94.5t31.5 122.5 q0 79 -45.5 123.5t-130.5 44.5h-283zM596 860h256q98 0 160.5 64t62.5 161q0 87 -55 125q-39 29 -121 29h-229z" />
<glyph unicode="C" horiz-adv-x="1513" d="M104 614q0 174 71 334t190 276.5t281 185.5t337 69q60 0 128.5 -7.5t147 -28t138 -51t93.5 -82.5q24 -37 23 -81q0 -18 -4 -37l-41 -201h-239l20 113q2 10 2 19q0 29 -19 53q-25 30 -71 45t-91.5 21.5t-90.5 6.5q-128 0 -241.5 -54t-190.5 -141t-121.5 -198.5 t-44.5 -226.5q0 -187 105 -305.5t294 -118.5q71 0 140 14t126 48.5t66 84.5l21 109h243l-37 -187q-15 -81 -77.5 -142.5t-149.5 -93.5t-174.5 -47.5t-171.5 -15.5q-294 0 -478 178t-184 461z" />
<glyph unicode="D" horiz-adv-x="1601" d="M-12 0l39 201h172l204 1050h-174l39 203h606q192 0 326 -49q167 -60 254.5 -195t87.5 -338q0 -172 -62 -332t-178.5 -285t-269.5 -189q-161 -66 -360 -66h-684zM469 215h193q161 0 282 59q147 73 237.5 233t90.5 345q0 264 -193 350q-86 37 -219 37h-192z" />
<glyph unicode="E" horiz-adv-x="1314" d="M-12 0l39 201h172l207 1050h-177l39 203h1080l-72 -375h-229l30 160h-407l-78 -399h479l-43 -215h-477l-80 -410h436l33 164h229l-73 -379h-1108z" />
<glyph unicode="F" horiz-adv-x="1212" d="M-12 0l39 201h172l207 1050h-177l39 203h1039l-74 -377h-229l28 150h-364l-80 -418h471l-43 -215h-471l-78 -393h192l-38 -201h-633z" />
<glyph unicode="G" horiz-adv-x="1579" d="M104 610q0 175 70.5 335.5t189.5 277.5t285.5 186.5t349.5 69.5q69 0 143.5 -9t152 -31t136 -53.5t91.5 -81.5q23 -37 23 -80q0 -16 -3 -32l-41 -201h-241l20 107q2 10 2 19q0 30 -19 53q-25 32 -72 48t-96.5 23.5t-99.5 7.5q-134 0 -250.5 -54.5t-194.5 -143.5 t-122.5 -201t-44.5 -227q0 -188 108 -303t320 -115q52 0 106.5 7.5t110 23.5t94.5 47.5t47 72.5l31 156h-264l39 201h508l-86 -432q-12 -66 -57.5 -119.5t-108 -87.5t-141.5 -57t-155 -32.5t-151 -9.5q-309 0 -494.5 175.5t-185.5 459.5z" />
<glyph unicode="H" horiz-adv-x="1757" d="M-12 0l39 201h172l204 1050h-174l39 203h619l-39 -203h-176l-82 -420h661l82 420h-176l39 203h619l-39 -203h-174l-207 -1050h176l-39 -201h-619l39 201h174l82 415h-659l-82 -415h174l-39 -201h-614z" />
<glyph unicode="I" horiz-adv-x="829" d="M-12 0l39 201h172l204 1050h-174l39 203h619l-39 -203h-176l-205 -1050h174l-39 -201h-614z" />
<glyph unicode="J" d="M-6 336q0 65 14 123q8 25 15 55h256l-13 -49q-12 -62 -12 -100q0 -154 147 -154q79 0 139.5 52t82.5 163l159 825h-204l38 203h629l-39 -203h-155l-162 -839q-21 -110 -71 -195.5t-118 -137t-146 -78t-161 -26.5q-79 0 -149.5 22.5t-127 66t-89.5 114t-33 158.5z" />
<glyph unicode="K" horiz-adv-x="1464" d="M-12 0l39 201h172l204 1050h-174l39 203h580l-39 -203h-137l-78 -395h154l352 395h-115l39 203h530l-38 -203h-134l-444 -493v-4q17 -12 23 -21q20 -20 40 -76l134 -362q20 -55 40.5 -76.5t71.5 -21.5q27 0 41 2q6 2 23 2l-39 -201q-75 -6 -119 -6q-54 0 -97 12t-70 29.5 t-49.5 47.5t-34 54t-25.5 62l-129 374q-23 68 -103 68h-92l-86 -440h168l-39 -201h-608z" />
<glyph unicode="L" horiz-adv-x="1257" d="M-10 0l39 201h174l203 1038h-177l43 215h617l-41 -215h-176l-199 -1024h430l45 225h230l-88 -440h-1100z" />
<glyph unicode="M" horiz-adv-x="1984" d="M-37 0l39 201h170l285 1050h-172l39 203h467l159 -821q9 -38 13 -88q2 -12 2 -33h4l14 33q12 28 43 88l483 821h482l-39 -203h-172l-127 -1050h172l-39 -201h-594l39 201h164l88 733q16 74 20 86q10 24 13 49h-7l-18 -45q-6 -11 -19.5 -40.5t-21.5 -43.5l-408 -670h-231 l-145 670q-4 17 -9 84q-2 14 -2 45h-6l-6 -49q-3 -14 -7 -43t-7 -43l-197 -733h162l-39 -201h-592z" />
<glyph unicode="N" horiz-adv-x="1736" d="M-12 0l39 201h172l207 1050h-177l39 203h437l432 -946q6 -16 22 -76q4 -15 8 -41h7q0 17 4 45q3 14 7 42.5t7 41.5l143 731h-180l39 203h623l-39 -203h-174l-244 -1251h-262l-436 946q-9 23 -23 76q-4 13 -8 39h-6l-4 -45q-4 -52 -11 -84l-143 -731h180l-39 -201h-620z " />
<glyph unicode="O" horiz-adv-x="1681" d="M102 614q0 115 33 226t91.5 206t141 175.5t179 137t208 88.5t224.5 32q141 0 262 -47.5t204.5 -130t131 -198t47.5 -249.5q0 -174 -73.5 -337t-193.5 -281.5t-281.5 -189.5t-330.5 -71q-188 0 -335.5 82.5t-227.5 228t-80 328.5zM373 629q0 -185 109 -301.5t282 -116.5 q107 0 213.5 49.5t189 132.5t134 200.5t51.5 244.5q0 180 -109 292.5t-282 112.5q-110 0 -217 -48.5t-188.5 -130t-132 -196.5t-50.5 -239z" />
<glyph unicode="P" horiz-adv-x="1370" d="M-10 0l39 201h174l207 1050h-177l39 203h670q136 0 223 -33q102 -38 165 -133.5t63 -230.5q0 -165 -90 -302.5t-238 -199.5q-93 -39 -246 -39h-284l-64 -315h176l-39 -201h-618zM575 731h238q83 0 150 31q72 35 114.5 110.5t42.5 167.5q0 123 -78 170q-56 29 -133 29 h-235z" />
<glyph unicode="Q" horiz-adv-x="1683" d="M102 614q0 171 73 331.5t191.5 277t276.5 186.5t322 70q147 0 271 -47t209.5 -130t133 -198.5t47.5 -249.5q0 -330 -252 -594l129 -145l-168 -156l-129 160q-200 -144 -442 -144q-147 0 -271.5 48t-210 133t-133 203t-47.5 255zM375 629q0 -185 109 -301.5t282 -116.5 q144 0 285 88l-172 207l163 151l168 -204q144 170 144 385q0 180 -109 292.5t-282 112.5q-111 0 -218 -48.5t-188.5 -130t-131.5 -196.5t-50 -239z" />
<glyph unicode="R" horiz-adv-x="1464" d="M-10 0l39 201h174l207 1050h-177l39 203h662q164 0 252 -43q86 -40 136 -122.5t50 -201.5q0 -101 -38.5 -195t-120 -170t-193.5 -108v-6q21 -26 22 -28q26 -30 37 -66l86 -219q20 -55 40.5 -76.5t70.5 -21.5q27 0 41 2q6 2 20 2l-39 -201q-75 -6 -114 -6q-54 0 -96.5 12 t-69.5 29.5t-49 47t-34 54.5t-26 62l-102 280q-17 44 -43 61t-76 17h-145l-70 -356h166l-39 -201h-610zM584 772h233q118 0 201.5 78t83.5 203q0 99 -66 149q-52 37 -159 37h-203z" />
<glyph unicode="S" horiz-adv-x="1236" d="M53 319l29 152h244l-23 -109q-2 -12 -2 -24q1 -40 29 -66q38 -36 94.5 -48.5t126.5 -12.5q130 0 206.5 63t76.5 158q0 52 -34.5 91t-90 65.5t-122.5 51t-133.5 56.5t-122 73t-90 108.5t-34.5 156.5q0 87 30.5 160.5t84.5 125.5t126.5 88t156.5 53.5t175 17.5q56 0 115 -8 t120.5 -28.5t107 -50.5t68.5 -79q15 -32 15 -69q0 -19 -4 -40l-33 -172h-245l20 101q6 31 -9.5 54t-46.5 34.5t-65.5 16.5t-74.5 5q-119 0 -194 -51t-75 -141q0 -41 21.5 -73.5t57.5 -55t83.5 -42t99.5 -39.5t103.5 -42t99 -53.5t83.5 -71t57.5 -98t21.5 -130.5 q0 -145 -82.5 -254t-215 -163t-292.5 -54q-63 0 -128.5 10.5t-133 36t-116.5 63.5t-74 99q-16 39 -16 84q0 24 5 51z" />
<glyph unicode="T" horiz-adv-x="1390" d="M133 1020l84 434h1276l-84 -434h-229l43 219h-275l-203 -1038h175l-39 -201h-617l39 201h174l203 1038h-277l-41 -219h-229z" />
<glyph unicode="U" horiz-adv-x="1660" d="M186 1251l39 203h617l-39 -203h-174l-129 -665q-19 -112 -19 -142q0 -110 71 -171.5t200 -61.5q163 0 260 90q94 82 121 225l141 725h-174l39 203h616l-39 -203h-174l-145 -739q-26 -142 -93 -251.5t-169 -176.5q-160 -109 -390 -109q-152 0 -272 49.5t-192 150 t-72 237.5q0 75 22 174l129 665h-174z" />
<glyph unicode="V" horiz-adv-x="1474" d="M145 1251l39 203h559l-38 -203h-152l109 -829q4 -21 4 -88q0 -29 -2 -43h6l14 43q7 21 37 88l434 829h-154l39 203h576l-39 -203h-133l-686 -1251h-281l-196 1251h-136z" />
<glyph unicode="W" horiz-adv-x="2082" d="M154 1251l39 203h559l-39 -203h-170l26 -829q0 -61 -2 -86l-4 -41h6q9 27 15 41q17 52 32 86l474 1032h215l71 -1032q2 -23 1.5 -44.5t-1.5 -41.5q-2 -14 -2 -41h8q3 17 13 41q26 82 28 86l351 829h-170l38 203h576l-39 -203h-133l-555 -1251h-299l-68 918q-1 11 -1 24 q0 27 3 64l4 45h-8q-4 -25 -12 -45q-5 -18 -35 -88l-422 -918h-301l-65 1251h-133z" />
<glyph unicode="X" horiz-adv-x="1419" d="M-51 0l39 201h127l477 549l-252 501h-137l39 203h538l-39 -203h-143l143 -305q6 -9 13.5 -24l9.5 -19q4 -6 8 -18h4q3 9 12 18l37 43l250 305h-133l39 203h535l-39 -203h-129l-476 -546l254 -504h138l-39 -201h-539l39 201h143l-145 305l-21 45q-3 4 -8 20h-4l-16 -20 q-5 -7 -18 -22t-19 -23l-250 -305h137l-39 -201h-536z" />
<glyph unicode="Y" horiz-adv-x="1347" d="M145 1251l39 203h529l-39 -203h-139l145 -381q3 -7 7 -22.5t7 -22.5q4 -12 4 -20h4q4 11 13 20q12 21 33 45l296 381h-141l39 203h549l-39 -203h-131l-514 -643l-80 -407h176l-39 -201h-618l39 201h174l80 407l-263 643h-131z" />
<glyph unicode="Z" horiz-adv-x="1323" d="M-6 0l33 170l878 1001q20 25 51 52l25 18v4q-17 0 -27 -2q-32 -4 -57 -4h-426l-43 -219h-229l84 434h1075l-33 -168l-881 -1003q-11 -14 -31 -32l-20 -18l-24 -20v-4l26 4q16 2 58 2h456l45 225h230l-86 -440h-1104z" />
<glyph unicode="[" horiz-adv-x="684" d="M33 -195l334 1713h403l-37 -189h-182l-258 -1335h182l-39 -189h-403z" />
<glyph unicode="\" horiz-adv-x="894" d="M258 1528h213l209 -1614h-213z" />
<glyph unicode="]" horiz-adv-x="684" d="M-68 -195l37 189h183l258 1335h-183l39 189h404l-334 -1713h-404z" />
<glyph unicode="^" horiz-adv-x="1267" d="M14 502l412 952h164l411 -952h-225l-268 678l-268 -678h-226z" />
<glyph unicode="_" horiz-adv-x="1165" d="M-147 -201l36 201h1149l-39 -201h-1146z" />
<glyph unicode="`" horiz-adv-x="1009" d="M186 1829h271l168 -279h-219z" />
<glyph unicode="a" d="M-10 244q0 91 46 163t117.5 115.5t166.5 72t183.5 39.5t178.5 11h37l6 33q6 27 6 53q0 62 -42.5 95.5t-123.5 33.5q-102 0 -213 -47q-44 -17 -98 -49l-59 192q59 35 124 58q142 55 295 55q73 0 137 -16.5t119 -51t87 -96.5t32 -145q0 -64 -43 -254.5t-43 -231.5 q0 -45 22.5 -64.5t65.5 -19.5q21 0 33 3q6 2 12 2l-37 -195q-3 -1 -12.5 -2t-13.5 -2q-18 -2 -82 -2q-225 0 -244 176h-4q0 -2 -14.5 -21t-45.5 -48t-71.5 -57t-100 -48t-122.5 -21q-126 0 -212.5 70t-86.5 199zM248 287q0 -56 32 -87.5t97 -31.5q99 0 187.5 91.5 t115.5 195.5l8 32h-45q-36 0 -71.5 -2.5t-83.5 -9t-88 -21t-75.5 -35.5t-56 -55t-20.5 -77z" />
<glyph unicode="b" horiz-adv-x="1280" d="M45 0l244 1260h-162l39 194h420l-86 -442q-14 -57 -17 -66l-8 -28h4q54 68 141.5 109.5t178.5 41.5q187 0 291 -118t104 -322q0 -140 -49 -264t-129 -208t-183 -133t-210 -49q-102 0 -184.5 41.5t-123.5 124.5h-4q0 -14 -2 -22q-6 -45 -8 -51l-12 -68h-244zM387 426 q0 -100 53 -165.5t154 -65.5q59 0 118.5 28.5t108 80t79 132t30.5 174.5q0 111 -54.5 173.5t-152.5 62.5q-132 0 -234 -123.5t-102 -296.5z" />
<glyph unicode="c" horiz-adv-x="1157" d="M47 438q0 120 51 234.5t138 202t213.5 141t267.5 53.5q52 0 106 -7.5t111 -27t98.5 -48t63.5 -74.5q14 -31 14 -67q0 -18 -4 -38l-27 -131h-223l12 65q1 6 1 11q-1 42 -47 68q-52 28 -128 28q-157 0 -270 -118t-113 -273q0 -117 72.5 -189.5t208.5 -72.5q124 0 248 65 q45 23 98 66l70 -197q-48 -42 -115 -76q-152 -78 -328 -78q-241 0 -379.5 128.5t-138.5 334.5z" />
<glyph unicode="d" horiz-adv-x="1333" d="M51 412q0 143 48 267t128 208.5t185.5 133t218.5 48.5q94 0 171 -36t116 -113h4q0 14 2 20l6 43l53 277h-162l39 194h420l-215 -1116q-8 -31 -8 -64q0 -45 22.5 -64.5t65.5 -19.5q21 0 33 3q6 2 12 2l-39 -195l-29 -4q-18 -2 -67 -2q-56 0 -96.5 7.5t-76 26t-55.5 54 t-24 88.5h-4q-56 -85 -151.5 -140t-198.5 -55q-190 0 -294 117t-104 320zM315 430q0 -111 54.5 -173t152.5 -62q85 0 162.5 57.5t124.5 154.5t47 205q0 101 -53 167.5t-154 66.5q-59 0 -117.5 -29t-107 -81t-79 -132t-30.5 -174z" />
<glyph unicode="e" horiz-adv-x="1142" d="M49 424q0 175 78 323t218 235t310 87q203 0 309.5 -108t106.5 -287q0 -49 -16 -127l-19 -62h-719q0 -10 -2 -16q-4 -28 -4 -37q0 -106 70 -171.5t192 -65.5q118 0 226 57q55 25 98 57l70 -196q-51 -36 -119 -68q-148 -70 -291 -70q-237 0 -372.5 126.5t-135.5 322.5z M352 639h459q0 14 2 20q2 14 2 37q0 81 -45 126.5t-121 45.5q-98 0 -178.5 -62t-118.5 -167z" />
<glyph unicode="f" horiz-adv-x="753" d="M104 0l164 850h-159l36 194h160l10 43q14 71 41 129t60.5 97t76 69t82.5 47t84 27.5t77.5 13.5t66.5 3q29 0 74 -5l28 -4l-43 -209l-18 5q-14 2 -49 2q-185 0 -220 -168l-10 -50h238l-37 -194h-238l-163 -850h-261z" />
<glyph unicode="g" horiz-adv-x="1304" d="M-4 -332l104 182q30 -18 76 -34q101 -33 205 -33q293 0 350 283q14 62 19 75q1 6 4 15l4 12h-2q-117 -148 -297 -148q-191 0 -296.5 119t-105.5 310q0 110 38 219t106 199t175 146t234 56q74 0 134 -17t95.5 -43t55.5 -51.5t27 -48.5h4v11q0 3 0.5 6t1.5 8.5t2 11.5 q7 42 41.5 70t93.5 28h262l-39 -194h-98q-47 0 -53 -41l-148 -756q-21 -104 -65.5 -187.5t-102.5 -137.5t-130 -90.5t-146 -52t-152 -15.5q-37 0 -73 2.5t-67 8t-57.5 11t-52 14t-43 14.5t-37.5 15t-29 13t-24 12zM322 469q0 -107 53 -168t155 -61q75 0 136.5 38.5t99 100 t58 132t20.5 140.5q0 197 -211 197q-94 0 -166.5 -55t-108.5 -140.5t-36 -183.5z" />
<glyph unicode="h" horiz-adv-x="1339" d="M45 0l244 1260h-156l37 194h418l-99 -512q-5 -31 -16 -63q-9 -22 -10 -27h4q8 18 38 51t79 71.5t125.5 66.5t158.5 28q138 0 218.5 -72.5t80.5 -210.5q0 -69 -42 -273.5t-42 -238.5q0 -47 22 -65.5t66 -18.5q22 0 31 3q6 2 12 2l-36 -195q-3 -1 -13 -2t-14 -2 q-18 -2 -76 -2q-39 0 -69.5 3t-68.5 16t-62.5 35t-42 63t-17.5 98t41 255.5t41 242.5q0 124 -133 124q-134 0 -236 -108.5t-133 -263.5l-90 -459h-260z" />
<glyph unicode="i" horiz-adv-x="692" d="M100 850l39 194h420l-137 -706q-8 -31 -8 -64q0 -45 22.5 -64.5t65.5 -19.5q21 0 33 3q6 2 12 2l-37 -195l-29 -4q-18 -2 -63 -2t-77.5 3t-72 15.5t-64.5 35t-42 64t-17 99.5q0 39 13 106l104 533h-162zM334 1223l45 231h262l-45 -231h-262z" />
<glyph unicode="j" horiz-adv-x="645" d="M-231 -418l41 203q2 -2 12 -2h33q27 0 51.5 3t57 15t58 31.5t47.5 55.5t31 85l168 877h-162l37 194h422l-205 -1060q-19 -100 -63.5 -177t-96.5 -119.5t-115.5 -69t-113 -34.5t-96.5 -8q-60 0 -78 2zM340 1223l45 231h262l-45 -231h-262z" />
<glyph unicode="k" horiz-adv-x="1191" d="M45 0l246 1260h-162l37 194h422l-158 -807h119l219 203h-121l39 194h494l-39 -194h-113l-301 -285v-4l18 -20q25 -35 39 -68l90 -199q20 -42 42.5 -61.5t68.5 -19.5q2 0 13.5 1t19.5 1h24l-36 -195q-69 -6 -107 -6q-66 0 -110.5 12t-73.5 44t-40.5 52.5t-32.5 72.5 q-3 7 -5 11l-94 217q-12 29 -29.5 41.5t-48.5 12.5h-72l-90 -457h-258z" />
<glyph unicode="l" horiz-adv-x="634" d="M88 223q0 47 12 109l181 928h-162l39 194h420l-211 -1098q-11 -57 -11 -75q0 -45 21.5 -61.5t66.5 -16.5q8 0 20 1t15 1h13l-41 -207l-27 -4q-16 -2 -64 -2q-43 0 -77 4t-72 18.5t-63.5 38.5t-42.5 67.5t-17 102.5z" />
<glyph unicode="m" horiz-adv-x="2017" d="M104 0l158 807q1 5 1 10q0 33 -38 33h-116l36 194h275q117 0 117 -90q0 -20 -7.5 -57.5t-17.5 -60.5h4q12 24 45.5 60t83.5 76.5t121 68.5t141 28q111 0 177.5 -61t76.5 -177h4q64 105 166.5 171.5t224.5 66.5q132 0 209.5 -73.5t77.5 -211.5q0 -65 -42 -269.5 t-42 -240.5q0 -47 21 -65.5t65 -18.5q21 0 33 3q6 2 12 2l-37 -195q-3 -1 -12.5 -2t-13.5 -2q-18 -2 -76 -2q-39 0 -69.5 3t-68.5 16t-62.5 35t-42 63t-17.5 98q0 53 41 257t41 245q0 60 -27.5 90t-95.5 30q-119 0 -208.5 -110t-119.5 -262l-88 -459h-260l121 623 q12 70 12 96q0 54 -27 83t-92 29q-85 0 -157 -58.5t-116 -143.5t-64 -185l-86 -444h-261z" />
<glyph unicode="n" horiz-adv-x="1398" d="M104 0l158 805q1 6 1 10q0 35 -38 35h-116l36 194h275q117 0 117 -92q0 -19 -7.5 -56t-17.5 -60h4q6 15 25 40t56.5 59.5t83.5 63.5t113 49.5t138 20.5q137 0 215 -72.5t78 -210.5q0 -70 -42 -273t-42 -239q0 -47 22 -65.5t66 -18.5q21 0 33 3q6 2 12 2l-37 -195 q-3 -1 -13 -2t-14 -2q-18 -2 -77 -2q-39 0 -69.5 3t-68 16t-62.5 35t-42 63t-17 98t40 255.5t40 242.5q0 62 -31.5 93t-101.5 31q-131 0 -233.5 -109t-132.5 -263l-90 -459h-261z" />
<glyph unicode="o" horiz-adv-x="1288" d="M47 438q0 132 55.5 250.5t147 201t212.5 131t249 48.5q217 0 356 -129t139 -332q0 -178 -95.5 -325t-247 -227.5t-320.5 -80.5q-217 0 -356.5 128t-139.5 335zM311 451q0 -116 70 -185t182 -69q93 0 180 50t143 142.5t56 202.5q0 116 -70.5 186t-181.5 70 q-93 0 -180 -50.5t-143 -143.5t-56 -203z" />
<glyph unicode="p" horiz-adv-x="1339" d="M25 -410l235 1215q1 6 1 11q0 34 -36 34h-116l36 194h269q62 0 87 -20.5t25 -58.5q0 -30 -18 -78h4q59 83 149.5 132.5t196.5 49.5q187 0 291 -118t104 -322q0 -140 -48.5 -264t-127.5 -208t-182 -133t-211 -49q-97 0 -175.5 39t-121.5 115h-4q0 -17 -2 -27 q-6 -50 -10 -67l-86 -445h-260zM449 430q0 -103 51.5 -169t152.5 -66q59 0 118.5 28.5t108 80t79 132t30.5 174.5q0 111 -54.5 173.5t-152.5 62.5q-84 0 -161 -56t-124.5 -153t-47.5 -207z" />
<glyph unicode="q" horiz-adv-x="1280" d="M51 410q0 143 48 268t128 209.5t185.5 133t218.5 48.5q219 0 301 -162h4v19q0 19 6 49l14 69h244l-246 -1265h162l-37 -189h-422l88 451q11 48 17 65q1 6 4 15l4 12h-4q-43 -62 -127.5 -110t-189.5 -48q-188 0 -293 117.5t-105 317.5zM315 430q0 -111 54.5 -173 t152.5 -62q85 0 162.5 57.5t124.5 154.5t47 205q0 102 -52 168t-153 66q-59 0 -118.5 -29t-108 -81t-79 -132t-30.5 -174z" />
<glyph unicode="r" horiz-adv-x="882" d="M104 0l156 805q5 19 -3.5 32t-33.5 13h-117l39 194h273q119 0 119 -92q0 -23 -11.5 -75.5t-23.5 -88.5h4q59 115 157.5 193t213.5 78q18 0 39 -2t22 -2l-51 -256q-2 0 -10.5 1t-23 2t-28.5 1q-59 0 -120.5 -30.5t-115 -84t-94.5 -134t-59 -173.5l-71 -381h-261z" />
<glyph unicode="s" horiz-adv-x="1019" d="M2 246l21 102h221l-11 -53q-8 -35 10 -60t54 -36.5t68.5 -16t66.5 -4.5q91 0 144 33t53 88q0 34 -27 60.5t-70 45t-95.5 36.5t-105 42.5t-95.5 55.5t-70 82t-27 116q0 83 39.5 148t106 104.5t148.5 59.5t173 20q68 0 132 -14t117 -41t80 -74q19 -33 19 -71q0 -17 -4 -35 l-22 -115h-223l10 61q4 25 -9 43t-37 26t-47 11.5t-49 3.5q-81 0 -130.5 -28t-49.5 -82q0 -32 21 -56.5t55.5 -40t79 -32.5t90.5 -31t90.5 -38t79 -52t55.5 -73.5t21 -102.5q0 -158 -136 -255.5t-352 -97.5q-56 0 -113 8.5t-113.5 29t-97 51t-61.5 77.5q-14 31 -14 66 q0 19 4 39z" />
<glyph unicode="t" horiz-adv-x="778" d="M84 850l39 194h168l55 285h250l-55 -285h239l-37 -194h-239l-84 -438q-6 -25 -6 -70q0 -141 164 -141q30 0 40 2q6 2 17 2l-41 -209l-25 -4q-14 -2 -51 -2q-75 0 -138 16t-117 50.5t-85 98.5t-31 152q0 25 11 96l88 447h-162z" />
<glyph unicode="u" horiz-adv-x="1390" d="M88 850l39 194h422l-121 -618q-12 -70 -12 -96q0 -62 30.5 -92.5t100.5 -30.5q87 0 165.5 56t128 138.5t66.5 171.5l54 277h-162l39 194h422l-140 -706q-6 -30 -6 -64q0 -45 22.5 -64.5t65.5 -19.5q22 0 31 3q6 2 12 2l-37 -195l-30 -4q-23 -2 -80 -2q-238 0 -238 215h-4 q-67 -99 -170 -166.5t-240 -67.5q-132 0 -216.5 70.5t-84.5 210.5q0 37 15 125l90 469h-162z" />
<glyph unicode="v" horiz-adv-x="1226" d="M66 850l38 194h494l-39 -194h-119l82 -516q6 -40 6 -78q0 -27 -2 -37h6q2 12 13 37q11 32 35 78l282 516h-119l39 194h510l-39 -194h-127l-483 -850h-299l-151 850h-127z" />
<glyph unicode="w" horiz-adv-x="1771" d="M70 850l39 194h493l-39 -194h-127l39 -510q1 -9 1 -21q0 -23 -3 -55l-4 -37h8l10 37q3 10 27 76l334 702h229l58 -702q1 -9 1 -21q0 -23 -3 -55l-5 -37h9l10 37q3 10 27 76l237 510h-125l37 194h510l-37 -194h-127l-405 -850h-297l-58 612q-2 22 -1.5 41.5t1.5 36.5 q2 14 2 37h-6q-5 -26 -10 -37q-19 -55 -31 -78l-299 -612h-295l-75 850h-125z" />
<glyph unicode="x" horiz-adv-x="1179" d="M-33 0l37 195h133l303 346l-133 272q-11 23 -22.5 30t-40.5 7h-109l39 194h207q52 0 75.5 -15t43.5 -62l80 -193q4 -9 10 -26.5t8 -22.5l8 -23h4l15 23q26 37 37 49l219 270h299l-37 -194h-131l-293 -332l121 -244q14 -25 20 -34.5t19.5 -23.5t31 -18.5t43.5 -4.5 q3 0 17.5 1t23.5 1h29l-39 -195q-69 -6 -96 -6q-53 0 -93.5 11t-65 25t-46.5 43t-31 47t-26 57q-3 6 -4 9l-41 103q-5 9 -11 26.5t-8 22.5l-8 22h-4l-14 -22l-37 -49l-234 -289h-299z" />
<glyph unicode="y" horiz-adv-x="1241" d="M-139 -354l116 182q17 -14 39 -23q39 -22 111 -22q62 0 117 32t90 89l41 65l-187 881h-125l37 194h506l-37 -194h-123l89 -528q5 -21 5 -47q0 -13 -1 -27l-4 -35h6l14 35q11 30 35 74l293 528h-121l39 194h499l-36 -194h-121l-576 -985q-93 -158 -202.5 -226.5 t-243.5 -68.5q-96 0 -193 37q-32 12 -67 39z" />
<glyph unicode="z" horiz-adv-x="1105" d="M-27 0l31 166l629 612q76 72 84 72v4q-21 0 -31 -2q-18 -2 -68 -2h-245l-29 -152h-221l67 346h883l-33 -167l-622 -611q-19 -19 -39.5 -36.5t-32.5 -26.5t-12 -8v-5q16 0 31 3q18 2 67 2h281l28 149h224l-70 -344h-922z" />
<glyph unicode="{" horiz-adv-x="735" d="M55 557l43 227q49 6 95 31q94 59 122 186l37 195q14 73 43.5 130.5t68 92.5t85.5 59.5t96 33t100 13t97 -2.5l-37 -193q-26 7 -63 0t-71 -21.5t-63 -54t-41 -96.5l-47 -244q-21 -114 -125 -194q-43 -32 -96 -47v-4q33 -13 63 -43q62 -66 62 -170q0 -29 -6 -64l-43 -219 q-6 -30 -6 -59q0 -43 19.5 -71t47 -36.5t58 -12.5t51.5 1l-37 -193q-13 0 -19 -2q-14 -2 -47 -2q-29 0 -62 5t-77 23t-78 46t-58 79.5t-24 119.5q0 42 11 96l32 178q7 35 7 57q0 89 -68 134q-32 19 -70 22z" />
<glyph unicode="|" horiz-adv-x="704" d="M248 -330v1960h221v-1960h-221z" />
<glyph unicode="}" horiz-adv-x="735" d="M-86 -199l37 193q31 -4 64 1t69 21t64 54.5t40 95.5l52 260q29 125 125 199q43 32 96 47v4q-34 15 -62 43q-63 67 -63 168q0 25 6 63l39 207q6 27 6 53q0 43 -19.5 71t-47 36.5t-58 12.5t-51.5 -1l37 193q56 7 115.5 -2.5t117 -37t94.5 -87.5t37 -144q0 -50 -10 -94 l-29 -160q-6 -34 -6 -57q0 -87 70 -133q34 -20 68 -23l-43 -227q-47 -6 -93 -31q-97 -61 -125 -188l-41 -213q-15 -73 -44.5 -130t-68 -92t-85 -59.5t-95.5 -33t-99.5 -12.5t-96.5 3z" />
<glyph unicode="~" horiz-adv-x="1241" d="M106 408q0 372 314 372q48 0 90 -14t69 -34.5t55 -44.5t49.5 -44.5t51.5 -34.5t62 -14q63 0 95 51t32 127h204q0 -188 -79.5 -280.5t-231.5 -92.5q-57 0 -104.5 19t-79.5 46.5t-61 54.5t-63 46t-71 19q-64 0 -95.5 -50.5t-31.5 -125.5h-205z" />
<glyph unicode="&#xa1;" horiz-adv-x="544" d="M-61 -410l223 1035h227l-180 -1035h-270zM180 801l47 243h254l-49 -243h-252z" />
<glyph unicode="&#xa2;" horiz-adv-x="1183" d="M98 621q0 132 46 254t122.5 211.5t178.5 148t212 70.5l33 172h176l-35 -183q170 -38 263 -184q39 -63 55 -139l-234 -86q-8 46 -34 90q-59 90 -174 90q-141 0 -243 -127.5t-102 -310.5q0 -112 54.5 -175t156.5 -63q117 0 211 90q47 44 74 88l221 -94q-49 -90 -112 -156 q-157 -157 -359 -174l-33 -168h-176l35 183q-155 37 -245.5 158.5t-90.5 304.5z" />
<glyph unicode="&#xa3;" horiz-adv-x="1277" d="M-27 0l39 207h170l86 430h-145l35 178h143l53 266q32 173 175 285.5t335 112.5q143 0 269 -78q57 -37 94 -80l-166 -162q-25 25 -55 43q-62 41 -148 41q-91 0 -157.5 -53.5t-84.5 -134.5l-47 -240h349l-35 -178h-346l-86 -430h438l45 233h229l-84 -440h-1106z" />
<glyph unicode="&#xa5;" horiz-adv-x="1318" d="M141 381l29 158h334l14 67l-35 99h-280l30 155h201l-198 594h286l117 -389q6 -23 35 -160q2 -8 7.5 -34.5t8.5 -39.5h4l39 74q30 61 88 158l264 391h314l-432 -594h202l-30 -155h-283l-70 -99l-14 -67h332l-29 -158h-332l-75 -381h-269l76 381h-334z" />
<glyph unicode="&#xa7;" horiz-adv-x="952" d="M-33 6l135 152q31 -23 58 -35q80 -37 157 -37q130 0 195 80.5t59 214.5l-10 688h199l10 -690q5 -139 -44 -252t-156 -183.5t-255 -70.5q-138 0 -256 66q-51 26 -92 67zM211 973q-6 102 22 193.5t84.5 161t146 110.5t200.5 41q140 0 258 -66q51 -26 92 -67l-135 -152 q-27 23 -58 37q-76 35 -157 35q-127 0 -193.5 -81.5t-60.5 -213.5l8 -688h-197z" />
<glyph unicode="&#xa8;" horiz-adv-x="1009" d="M45 1591l47 238h213l-49 -238h-211zM489 1591l50 238h213l-50 -238h-213z" />
<glyph unicode="&#xa9;" horiz-adv-x="1656" d="M117 727q0 154 57.5 293t155.5 239t232.5 159t283.5 59q152 0 289 -59t235.5 -159t156.5 -239t58 -293q0 -153 -58 -292.5t-156.5 -240t-235.5 -160t-289 -59.5q-148 0 -283 59.5t-233 160t-155.5 240t-57.5 292.5zM299 727q0 -121 42.5 -229.5t115 -186.5t174 -124 t215.5 -46q155 0 283 77.5t201 212t73 296.5t-73 296t-201 211t-283 77q-152 0 -277.5 -77t-197.5 -211t-72 -296zM475 723q0 167 109 283t274 116q160 0 258 -106q47 -47 74 -109l-156 -73q-11 25 -41 59q-59 59 -129 59q-90 0 -146 -66.5t-56 -162.5q0 -101 53 -165 t149 -64q70 0 129 59q30 34 41 59l156 -71q-27 -59 -74 -109q-108 -108 -258 -108q-165 0 -274 116t-109 283z" />
<glyph unicode="&#xaa;" horiz-adv-x="866" d="M125 545l25 139h587l-26 -139h-586zM203 958q0 246 415 246h29q0 9 2 15t2 18q6 47 -18.5 70.5t-79.5 23.5q-56 0 -121 -26q-37 -15 -59 -27l-45 127q52 27 75 35q95 35 201 35q116 0 175 -53.5t59 -153.5q0 -34 -9 -74l-77 -397h-172l18 96h-4q-24 -34 -51 -53 q-73 -56 -150 -56q-78 0 -134 46t-56 128zM389 983q0 -61 74 -61q56 0 102 51t58 121h-23q-32 0 -65 -5t-67.5 -16t-56.5 -34.5t-22 -55.5z" />
<glyph unicode="&#xab;" horiz-adv-x="1234" d="M70 580l391 419h258l-412 -432l264 -409h-237zM526 580l430 419h263l-455 -432l264 -409h-237z" />
<glyph unicode="&#xac;" horiz-adv-x="1300" d="M137 694v201h1000v-602h-209v401h-791z" />
<glyph unicode="&#xad;" horiz-adv-x="954" d="M141 471l43 227h617l-43 -227h-617z" />
<glyph unicode="&#xae;" horiz-adv-x="1656" d="M117 727q0 154 57.5 293t155.5 239t232.5 159t283.5 59q152 0 289 -59t235.5 -159t156.5 -239t58 -293q0 -153 -58 -292.5t-156.5 -240t-235.5 -160t-289 -59.5q-148 0 -283 59.5t-233 160t-155.5 240t-57.5 292.5zM299 727q0 -121 42.5 -229.5t115 -186.5t174 -124 t215.5 -46q155 0 283 77.5t201 212t73 296.5t-73 296t-201 211t-283 77q-152 0 -277.5 -77t-197.5 -211t-72 -296zM590 356v750h313q111 0 177.5 -65t66.5 -173q0 -79 -41.5 -129t-89.5 -65v-4l6 -8q8 -8 20 -35l140 -271h-191l-127 277h-98v-277h-176zM766 756h96 q51 0 79 29t28 83t-27.5 82.5t-77.5 28.5h-98v-223z" />
<glyph unicode="&#xaf;" horiz-adv-x="1009" d="M113 1604l34 178h537l-33 -178h-538z" />
<glyph unicode="&#xb0;" horiz-adv-x="825" d="M178 1120q0 92 53 176t139 134.5t177 50.5q133 0 219 -82.5t86 -206.5q0 -92 -54 -175.5t-139.5 -132t-175.5 -48.5q-134 0 -219.5 80t-85.5 204zM375 1135q0 -50 32.5 -81.5t86.5 -31.5q62 0 110.5 47t48.5 109q0 51 -32 82.5t-86 31.5q-63 0 -111.5 -47.5t-48.5 -109.5 z" />
<glyph unicode="&#xb1;" horiz-adv-x="1267" d="M80 483v203h442v485h211v-485h443v-203h-443v-483h-211v483h-442zM106 -174h1043v-201h-1043v201z" />
<glyph unicode="&#xb2;" horiz-adv-x="798" d="M131 866q0 91 30 165.5t77.5 123.5t105 89t115.5 71t105.5 60t77.5 64.5t30 76.5t-30.5 65.5t-74.5 24.5q-63 0 -129 -47q-23 -16 -55 -48l-115 123q48 48 88 76q107 76 228 76q122 0 205 -66.5t83 -183.5q0 -63 -25.5 -116.5t-67.5 -92t-93 -71t-104 -60t-99 -53.5 t-79.5 -57t-43.5 -64h289l19 98h155l-47 -254h-645z" />
<glyph unicode="&#xb3;" horiz-adv-x="786" d="M133 983l121 129q22 -22 49 -43q65 -45 146 -45q68 0 117.5 44t49.5 106q0 45 -40 70.5t-99 25.5h-63l-23 86l217 215q7 7 37 31q9 10 17 12v8l-21 -4q-28 -4 -45 -4h-156l-20 -105h-156l49 256h596l-24 -125l-252 -241q75 -19 128.5 -77t53.5 -146q0 -127 -105.5 -228.5 t-260.5 -101.5q-139 0 -240 69q-45 29 -76 68z" />
<glyph unicode="&#xb4;" horiz-adv-x="1009" d="M115 1550l274 279h293l-330 -279h-237z" />
<glyph unicode="&#xb6;" horiz-adv-x="1284" d="M131 915q0 143 81 269t209.5 198t266.5 72h651l-43 -227h-434l-260 -1329h-188l116 596q-76 0 -148.5 31.5t-128 86t-89 134t-33.5 169.5zM729 -102l238 1216h188l-235 -1216h-191z" />
<glyph unicode="&#xb7;" horiz-adv-x="579" d="M133 465l51 264h252l-49 -264h-254z" />
<glyph unicode="&#xb8;" horiz-adv-x="1009" d="M147 -442l25 127q3 -1 12 -4.5t15 -4.5q24 -6 65 -6q25 0 48.5 5t45 22t21.5 43q0 28 -29.5 41.5t-77.5 13.5h-41l125 256l115 -26l-4 -15l-57 -121q64 -5 106.5 -43.5t42.5 -99.5q0 -53 -27 -94.5t-71 -64t-92 -33.5t-97 -11q-54 0 -88 6q-8 1 -21 4.5t-16 4.5z" />
<glyph unicode="&#xb9;" horiz-adv-x="724" d="M131 866l31 156h207l82 424q2 9 5.5 26t6.5 25l8 21h-4l-14 -17q-16 -20 -35 -33l-88 -67l-92 125l299 239h170l-144 -743h207l-31 -156h-608z" />
<glyph unicode="&#xba;" horiz-adv-x="958" d="M135 545l29 139h659l-26 -139h-662zM215 1077q0 111 59.5 203.5t154.5 143.5t200 51q140 0 226.5 -80.5t86.5 -210.5q0 -111 -61 -203.5t-156 -143.5t-199 -51q-137 0 -224 80.5t-87 210.5zM401 1092q0 -65 39.5 -103.5t102.5 -38.5q82 0 147.5 63.5t65.5 157.5 q0 63 -40 102.5t-102 39.5q-81 0 -147 -64.5t-66 -156.5z" />
<glyph unicode="&#xbb;" horiz-adv-x="1234" d="M4 158l453 432l-262 409h237l264 -421l-430 -420h-262zM502 158l411 432l-262 409h238l264 -421l-391 -420h-260z" />
<glyph unicode="&#xbc;" horiz-adv-x="2025" d="M102 555l31 156h207l82 424q2 9 5.5 26t6.5 25l8 20h-4l-14 -16q-16 -20 -35 -33l-88 -67l-92 124l299 240h170l-143 -743h206l-30 -156h-609zM444 0l969 1454h201l-969 -1454h-201zM1153 209l23 125l491 565h225l-104 -543h119l-27 -147h-121l-41 -209h-192l43 209h-416 zM1368 356h227l54 267q1 7 16 63q7 17 10 33h-6l-18 -29q-23 -37 -41 -57l-242 -273v-4z" />
<glyph unicode="&#xbd;" horiz-adv-x="1998" d="M92 555l31 156h207l82 424q2 9 5.5 26t6.5 25l8 20h-4l-14 -16q-16 -20 -35 -33l-88 -67l-92 124l299 240h170l-144 -743h207l-31 -156h-608zM438 0l969 1454h201l-969 -1454h-201zM1159 0q2 91 32.5 165.5t78.5 123.5t105.5 89.5t114.5 71t104 59.5t76.5 64t29.5 76 t-30.5 65.5t-74.5 24.5q-63 0 -129 -47q-27 -19 -55 -47l-115 123q48 48 88 76q107 76 228 76q122 0 205.5 -66.5t83.5 -183.5q0 -63 -25.5 -116.5t-67.5 -92t-93 -71t-104 -60t-99 -53.5t-79.5 -57t-43.5 -64h288l19 98h155l-47 -254h-645z" />
<glyph unicode="&#xbe;" horiz-adv-x="2041" d="M100 672l121 129q22 -22 49 -43q65 -45 146 -45q68 0 118 43.5t50 105.5q0 45 -40.5 70.5t-99.5 25.5h-63l-23 86l217 216q2 2 37 30q11 11 17 13v8l-21 -4q-28 -4 -45 -4h-155l-21 -105h-156l50 256h596l-25 -125l-252 -242q75 -19 128.5 -77t53.5 -146 q0 -127 -105.5 -228t-260.5 -101q-139 0 -240 69q-45 29 -76 68zM455 0l968 1454h201l-969 -1454h-200zM1163 209l23 125l491 565h226l-105 -543h119l-27 -147h-121l-40 -209h-193l43 209h-416zM1378 356h228l53 267q1 7 16 63q9 22 11 33h-7l-18 -29q-23 -37 -41 -57 l-242 -273v-4z" />
<glyph unicode="&#xbf;" horiz-adv-x="1001" d="M-31 -86q0 73 24 137t63 110t86.5 87t96.5 77t91 70t73 74.5t39 83.5l15 72h250l-17 -90q-12 -64 -43 -120t-71 -96.5t-86 -77t-89 -69t-78.5 -65.5t-57 -73t-21.5 -85q0 -62 46 -102t120 -40q83 0 163 43q30 17 72 46l117 -195q-60 -43 -113 -66q-142 -65 -276 -65 q-173 0 -288.5 92t-115.5 252zM487 801l48 243h251l-47 -243h-252z" />
<glyph unicode="&#xc0;" horiz-adv-x="1486" d="M-94 0l39 201h131l680 1253h303l194 -1253h131l-38 -201h-537l39 201h143l-37 272h-458l-144 -272h144l-41 -201h-549zM598 682h334l-55 412q-5 33 -5 90v37h-6q-3 -17 -12 -37l-37 -90zM627 1829h270l168 -279h-219z" />
<glyph unicode="&#xc1;" horiz-adv-x="1490" d="M-92 0l39 201h131l680 1253h303l194 -1253h131l-38 -201h-537l39 201h143l-37 272h-458l-144 -272h144l-41 -201h-549zM600 682h334l-55 412q-5 33 -5 90v37h-6q-3 -17 -12 -37l-37 -90zM774 1550l275 279h292l-329 -279h-238z" />
<glyph unicode="&#xc2;" horiz-adv-x="1490" d="M-92 0l39 201h131l680 1253h303l194 -1253h131l-38 -201h-537l39 201h143l-37 272h-458l-144 -272h144l-41 -201h-549zM594 1550l246 279h266l133 -279h-209l-69 166h-5l-135 -166h-227zM600 682h334l-55 412q-5 33 -5 90v37h-6q-3 -17 -12 -37l-37 -90z" />
<glyph unicode="&#xc3;" horiz-adv-x="1490" d="M-92 0l39 201h131l680 1253h303l194 -1253h131l-38 -201h-537l39 201h143l-37 272h-458l-144 -272h144l-41 -201h-549zM567 1552q26 135 94 208t166 73q49 0 85.5 -20.5t54 -45t41 -45t49.5 -20.5q68 0 96 125h182q-25 -133 -93.5 -207t-166.5 -74q-39 0 -70 13.5t-50 33 t-35.5 38.5t-34.5 32.5t-39 13.5q-70 0 -96 -125h-183zM600 682h334l-55 412q-5 33 -5 90v37h-6q-3 -17 -12 -37l-37 -90z" />
<glyph unicode="&#xc4;" horiz-adv-x="1490" d="M-92 0l39 201h131l680 1253h303l194 -1253h131l-38 -201h-537l39 201h143l-37 272h-458l-144 -272h144l-41 -201h-549zM600 682h334l-55 412q-5 33 -5 90v37h-6q-3 -17 -12 -37l-37 -90zM604 1591l47 238h213l-49 -238h-211zM1049 1591l49 238h213l-49 -238h-213z" />
<glyph unicode="&#xc5;" horiz-adv-x="1490" d="M-92 0l39 201h131l680 1253h303l194 -1253h131l-38 -201h-537l39 201h143l-37 272h-458l-144 -272h144l-41 -201h-549zM600 682h334l-55 412q-5 33 -5 90v37h-6q-3 -17 -12 -37l-37 -90zM750 1663q0 87 69 138.5t154 51.5q76 0 129 -39t53 -108q0 -85 -70 -135.5 t-157 -50.5q-76 0 -127 37t-51 106zM879 1667q0 -55 57 -55q39 0 64.5 25.5t25.5 66.5q0 57 -59 57q-36 0 -62 -26t-26 -68z" />
<glyph unicode="&#xc6;" horiz-adv-x="1986" d="M-86 0l39 201h121l635 1050h-148l39 203h1421l-71 -375h-217l32 160h-413l-78 -399h473l-43 -215h-473l-80 -410h444l31 160h215l-72 -375h-1099l39 201h172l84 428h-361l-252 -428h148l-39 -201h-547zM723 831h281l79 408h-116z" />
<glyph unicode="&#xc7;" horiz-adv-x="1513" d="M104 614q0 174 71 334t190 276.5t281 185.5t337 69q60 0 128.5 -7.5t147 -28t138 -51t93 -83t19.5 -117.5l-41 -201h-239l20 113q8 41 -17 71.5t-71 45.5t-91.5 21.5t-90.5 6.5q-128 0 -241.5 -54t-190.5 -141t-121.5 -198.5t-44.5 -226.5q0 -187 105 -305.5t294 -118.5 q71 0 140 14t126 48.5t66 84.5l21 109h243l-37 -187q-15 -81 -77.5 -142.5t-149.5 -93.5t-174.5 -47.5t-171.5 -15.5h-14l-41 -86q64 -5 105.5 -43.5t41.5 -99.5q0 -43 -18 -78.5t-47 -58t-67 -38t-76 -22t-77 -6.5q-53 0 -88 6q-8 1 -20.5 4.5t-15.5 4.5l24 127 q3 -1 12 -4.5t15 -4.5q24 -6 65 -6q25 0 48.5 5t45 22t21.5 43q0 28 -29.5 41.5t-77.5 13.5h-41l95 195q-239 37 -381 207t-142 417z" />
<glyph unicode="&#xc8;" horiz-adv-x="1314" d="M-12 0l39 201h172l207 1050h-177l39 203h1080l-72 -375h-229l30 160h-407l-78 -399h479l-43 -215h-477l-80 -410h436l33 164h229l-73 -379h-1108zM569 1829h271l168 -279h-220z" />
<glyph unicode="&#xc9;" horiz-adv-x="1314" d="M-12 0l39 201h172l207 1050h-177l39 203h1080l-72 -375h-229l30 160h-407l-78 -399h479l-43 -215h-477l-80 -410h436l33 164h229l-73 -379h-1108zM713 1550l274 279h293l-330 -279h-237z" />
<glyph unicode="&#xca;" horiz-adv-x="1314" d="M-12 0l39 201h172l207 1050h-177l39 203h1080l-72 -375h-229l30 160h-407l-78 -399h479l-43 -215h-477l-80 -410h436l33 164h229l-73 -379h-1108zM532 1550l246 279h266l134 -279h-209l-70 166h-4l-135 -166h-228z" />
<glyph unicode="&#xcb;" horiz-adv-x="1314" d="M-12 0l39 201h172l207 1050h-177l39 203h1080l-72 -375h-229l30 160h-407l-78 -399h479l-43 -215h-477l-80 -410h436l33 164h229l-73 -379h-1108zM545 1591l47 238h213l-49 -238h-211zM989 1591l49 238h213l-49 -238h-213z" />
<glyph unicode="&#xcc;" horiz-adv-x="829" d="M-12 0l39 201h172l204 1050h-174l39 203h619l-39 -203h-176l-205 -1050h174l-39 -201h-614zM297 1829h270l168 -279h-219z" />
<glyph unicode="&#xcd;" horiz-adv-x="829" d="M-12 0l39 201h172l204 1050h-174l39 203h619l-39 -203h-176l-205 -1050h174l-39 -201h-614zM440 1550l275 279h293l-330 -279h-238z" />
<glyph unicode="&#xce;" horiz-adv-x="829" d="M-12 0l39 201h172l204 1050h-174l39 203h619l-39 -203h-176l-205 -1050h174l-39 -201h-614zM260 1550l246 279h266l133 -279h-209l-69 166h-4l-136 -166h-227z" />
<glyph unicode="&#xcf;" horiz-adv-x="829" d="M-12 0l39 201h172l204 1050h-174l39 203h619l-39 -203h-176l-205 -1050h174l-39 -201h-614zM272 1591l47 238h213l-49 -238h-211zM717 1591l49 238h213l-49 -238h-213z" />
<glyph unicode="&#xd0;" horiz-adv-x="1607" d="M-12 0l39 201h172l82 415h-152l41 215h152l81 420h-174l39 203h627q307 0 480 -150t173 -421q0 -180 -63.5 -342t-174.5 -281.5t-271.5 -189.5t-346.5 -70h-704zM469 215h213q172 0 309 86t212 233t75 326q0 184 -104.5 281.5t-292.5 97.5h-211l-80 -408h282l-41 -215 h-282z" />
<glyph unicode="&#xd1;" horiz-adv-x="1736" d="M-12 0l39 201h172l207 1050h-177l39 203h437l432 -946q6 -16 22 -76q4 -15 8 -41h7q0 17 4 45q3 14 7 42.5t7 41.5l143 731h-180l39 203h623l-39 -203h-174l-244 -1251h-262l-436 946q-9 23 -23 76q-4 13 -8 39h-6l-4 -45q-4 -52 -11 -84l-143 -731h180l-39 -201h-620z M698 1552q26 135 94 208t166 73q49 0 85.5 -20.5t54 -45t41 -45t49.5 -20.5q68 0 96 125h182q-25 -133 -93.5 -207t-166.5 -74q-39 0 -70 13.5t-50 33t-35.5 38.5t-34.5 32.5t-39 13.5q-70 0 -96 -125h-183z" />
<glyph unicode="&#xd2;" horiz-adv-x="1681" d="M102 614q0 115 33 226t91.5 206t141 175.5t179 137t208 88.5t224.5 32q141 0 262 -47.5t204.5 -130t131 -198t47.5 -249.5q0 -174 -73.5 -337t-193.5 -281.5t-281.5 -189.5t-330.5 -71q-188 0 -335.5 82.5t-227.5 228t-80 328.5zM373 629q0 -185 109 -301.5t282 -116.5 q107 0 213.5 49.5t189 132.5t134 200.5t51.5 244.5q0 180 -109 292.5t-282 112.5q-110 0 -217 -48.5t-188.5 -130t-132 -196.5t-50.5 -239zM725 1829h270l168 -279h-219z" />
<glyph unicode="&#xd3;" horiz-adv-x="1681" d="M102 614q0 115 33 226t91.5 206t141 175.5t179 137t208 88.5t224.5 32q141 0 262 -47.5t204.5 -130t131 -198t47.5 -249.5q0 -174 -73.5 -337t-193.5 -281.5t-281.5 -189.5t-330.5 -71q-188 0 -335.5 82.5t-227.5 228t-80 328.5zM373 629q0 -185 109 -301.5t282 -116.5 q107 0 213.5 49.5t189 132.5t134 200.5t51.5 244.5q0 180 -109 292.5t-282 112.5q-110 0 -217 -48.5t-188.5 -130t-132 -196.5t-50.5 -239zM870 1550l275 279h293l-330 -279h-238z" />
<glyph unicode="&#xd4;" horiz-adv-x="1681" d="M102 614q0 115 33 226t91.5 206t141 175.5t179 137t208 88.5t224.5 32q141 0 262 -47.5t204.5 -130t131 -198t47.5 -249.5q0 -174 -73.5 -337t-193.5 -281.5t-281.5 -189.5t-330.5 -71q-188 0 -335.5 82.5t-227.5 228t-80 328.5zM373 629q0 -185 109 -301.5t282 -116.5 q107 0 213.5 49.5t189 132.5t134 200.5t51.5 244.5q0 180 -109 292.5t-282 112.5q-110 0 -217 -48.5t-188.5 -130t-132 -196.5t-50.5 -239zM690 1550l246 279h266l133 -279h-209l-69 166h-4l-135 -166h-228z" />
<glyph unicode="&#xd5;" horiz-adv-x="1681" d="M102 614q0 115 33 226t91.5 206t141 175.5t179 137t208 88.5t224.5 32q141 0 262 -47.5t204.5 -130t131 -198t47.5 -249.5q0 -174 -73.5 -337t-193.5 -281.5t-281.5 -189.5t-330.5 -71q-188 0 -335.5 82.5t-227.5 228t-80 328.5zM373 629q0 -185 109 -301.5t282 -116.5 q107 0 213.5 49.5t189 132.5t134 200.5t51.5 244.5q0 180 -109 292.5t-282 112.5q-110 0 -217 -48.5t-188.5 -130t-132 -196.5t-50.5 -239zM664 1552q26 135 94 208t166 73q40 0 71 -13.5t49.5 -32.5t34.5 -38.5t34 -33t40 -13.5q68 0 96 125h183q-25 -133 -94 -207 t-167 -74q-39 0 -70 13.5t-50 33t-35.5 38.5t-34.5 32.5t-39 13.5q-70 0 -96 -125h-182z" />
<glyph unicode="&#xd6;" horiz-adv-x="1681" d="M102 614q0 115 33 226t91.5 206t141 175.5t179 137t208 88.5t224.5 32q141 0 262 -47.5t204.5 -130t131 -198t47.5 -249.5q0 -174 -73.5 -337t-193.5 -281.5t-281.5 -189.5t-330.5 -71q-188 0 -335.5 82.5t-227.5 228t-80 328.5zM373 629q0 -185 109 -301.5t282 -116.5 q107 0 213.5 49.5t189 132.5t134 200.5t51.5 244.5q0 180 -109 292.5t-282 112.5q-110 0 -217 -48.5t-188.5 -130t-132 -196.5t-50.5 -239zM700 1591l48 238h213l-50 -238h-211zM1145 1591l49 238h213l-49 -238h-213z" />
<glyph unicode="&#xd7;" horiz-adv-x="1267" d="M88 141l404 445l-404 442l141 143l400 -438l399 438l141 -143l-405 -442l405 -445l-141 -141l-399 438l-400 -438z" />
<glyph unicode="&#xd8;" horiz-adv-x="1683" d="M104 614q0 171 73 331.5t191.5 277t276.5 186.5t322 70q220 0 387 -107l125 135l108 -88l-125 -135q166 -171 166 -430q0 -174 -73.5 -337t-192.5 -281t-276.5 -189.5t-319.5 -71.5q-240 0 -404 117l-135 -145l-108 88l139 151q-154 178 -154 428zM377 629 q0 -143 69 -240l728 791q-93 57 -209 57q-148 0 -283.5 -81t-220 -222.5t-84.5 -304.5zM541 285q95 -68 227 -68q107 0 213.5 49.5t189 131.5t134 198.5t51.5 241.5q0 145 -78 245z" />
<glyph unicode="&#xd9;" horiz-adv-x="1660" d="M186 1251l39 203h617l-39 -203h-174l-129 -665q-19 -112 -19 -142q0 -110 71 -171.5t200 -61.5q163 0 260 90q94 82 121 225l141 725h-174l39 203h616l-39 -203h-174l-145 -739q-26 -142 -93 -251.5t-169 -176.5q-160 -109 -390 -109q-152 0 -272 49.5t-192 150 t-72 237.5q0 75 22 174l129 665h-174zM713 1829h270l168 -279h-219z" />
<glyph unicode="&#xda;" horiz-adv-x="1660" d="M186 1251l39 203h617l-39 -203h-174l-129 -665q-19 -112 -19 -142q0 -110 71 -171.5t200 -61.5q163 0 260 90q94 82 121 225l141 725h-174l39 203h616l-39 -203h-174l-145 -739q-26 -142 -93 -251.5t-169 -176.5q-160 -109 -390 -109q-152 0 -272 49.5t-192 150 t-72 237.5q0 75 22 174l129 665h-174zM858 1550l275 279h292l-329 -279h-238z" />
<glyph unicode="&#xdb;" horiz-adv-x="1660" d="M186 1251l39 203h617l-39 -203h-174l-129 -665q-19 -112 -19 -142q0 -110 71 -171.5t200 -61.5q163 0 260 90q94 82 121 225l141 725h-174l39 203h616l-39 -203h-174l-145 -739q-26 -142 -93 -251.5t-169 -176.5q-160 -109 -390 -109q-152 0 -272 49.5t-192 150 t-72 237.5q0 75 22 174l129 665h-174zM678 1550l246 279h266l133 -279h-209l-70 166h-4l-135 -166h-227z" />
<glyph unicode="&#xdc;" horiz-adv-x="1660" d="M186 1251l39 203h617l-39 -203h-174l-129 -665q-19 -112 -19 -142q0 -110 71 -171.5t200 -61.5q163 0 260 90q94 82 121 225l141 725h-174l39 203h616l-39 -203h-174l-145 -739q-26 -142 -93 -251.5t-169 -176.5q-160 -109 -390 -109q-152 0 -272 49.5t-192 150 t-72 237.5q0 75 22 174l129 665h-174zM690 1591l47 238h213l-49 -238h-211zM1135 1591l49 238h213l-49 -238h-213z" />
<glyph unicode="&#xdd;" horiz-adv-x="1347" d="M145 1251l39 203h529l-39 -203h-139l145 -381q3 -7 7 -22.5t7 -22.5q4 -12 4 -20h4q4 11 13 20q12 21 33 45l296 381h-141l39 203h549l-39 -203h-131l-514 -643l-80 -407h176l-39 -201h-618l39 201h174l80 407l-263 643h-131zM709 1550l274 279h293l-330 -279h-237z" />
<glyph unicode="&#xde;" horiz-adv-x="1355" d="M-12 0l39 201h172l207 1050h-177l39 203h619l-39 -203h-180l-25 -125h309q183 0 284 -87.5t101 -237.5q0 -134 -69 -236.5t-186.5 -156.5t-264.5 -54h-323l-31 -153h180l-39 -201h-616zM530 555h258q127 0 202 60t75 173q0 138 -201 138h-260z" />
<glyph unicode="&#xdf;" horiz-adv-x="1263" d="M45 0l213 1102q18 90 68.5 163t120.5 119t152 70.5t167 24.5q173 0 284 -87.5t111 -226.5q0 -67 -26.5 -122.5t-64 -92t-75 -68.5t-64 -65t-26.5 -67q0 -33 25.5 -68t62 -68t73 -69.5t62 -88t25.5 -108.5q0 -100 -58 -184t-151.5 -131t-198.5 -47q-128 0 -219 26 q-35 10 -75 27l45 215q39 -17 61 -23q67 -24 166 -24q40 0 76.5 12t65 45t28.5 82q0 33 -19 65.5t-47 58.5t-61 56.5t-61 58.5t-47 66.5t-19 79.5q0 57 27 108t65 88t76 70.5t65 71t27 74.5q0 50 -37 82t-106 32q-87 0 -156 -48.5t-88 -143.5l-207 -1065h-260z" />
<glyph unicode="&#xe0;" d="M-10 244q0 91 46 163t117.5 115.5t166.5 72t183.5 39.5t178.5 11h37l6 33q6 27 6 53q0 62 -42.5 95.5t-123.5 33.5q-102 0 -213 -47q-44 -17 -98 -49l-59 192q59 35 124 58q142 55 295 55q73 0 137 -16.5t119 -51t87 -96.5t32 -145q0 -64 -43 -254.5t-43 -231.5 q0 -45 22.5 -64.5t65.5 -19.5q21 0 33 3q6 2 12 2l-37 -195q-3 -1 -12.5 -2t-13.5 -2q-18 -2 -82 -2q-225 0 -244 176h-4q0 -2 -14.5 -21t-45.5 -48t-71.5 -57t-100 -48t-122.5 -21q-126 0 -212.5 70t-86.5 199zM248 287q0 -56 32 -87.5t97 -31.5q99 0 187.5 91.5 t115.5 195.5l8 32h-45q-36 0 -71.5 -2.5t-83.5 -9t-88 -21t-75.5 -35.5t-56 -55t-20.5 -77zM358 1452h271l168 -278h-219z" />
<glyph unicode="&#xe1;" d="M-10 244q0 91 46 163t117.5 115.5t166.5 72t183.5 39.5t178.5 11h37l6 33q6 27 6 53q0 62 -42.5 95.5t-123.5 33.5q-102 0 -213 -47q-44 -17 -98 -49l-59 192q59 35 124 58q142 55 295 55q73 0 137 -16.5t119 -51t87 -96.5t32 -145q0 -64 -43 -254.5t-43 -231.5 q0 -45 22.5 -64.5t65.5 -19.5q21 0 33 3q6 2 12 2l-37 -195q-3 -1 -12.5 -2t-13.5 -2q-18 -2 -82 -2q-225 0 -244 176h-4q0 -2 -14.5 -21t-45.5 -48t-71.5 -57t-100 -48t-122.5 -21q-126 0 -212.5 70t-86.5 199zM248 287q0 -56 32 -87.5t97 -31.5q99 0 187.5 91.5 t115.5 195.5l8 32h-45q-36 0 -71.5 -2.5t-83.5 -9t-88 -21t-75.5 -35.5t-56 -55t-20.5 -77zM504 1174l274 278h293l-330 -278h-237z" />
<glyph unicode="&#xe2;" d="M-10 244q0 91 46 163t117.5 115.5t166.5 72t183.5 39.5t178.5 11h37l6 33q6 27 6 53q0 62 -42.5 95.5t-123.5 33.5q-102 0 -213 -47q-44 -17 -98 -49l-59 192q59 35 124 58q142 55 295 55q73 0 137 -16.5t119 -51t87 -96.5t32 -145q0 -64 -43 -254.5t-43 -231.5 q0 -45 22.5 -64.5t65.5 -19.5q21 0 33 3q6 2 12 2l-37 -195q-3 -1 -12.5 -2t-13.5 -2q-18 -2 -82 -2q-225 0 -244 176h-4q0 -2 -14.5 -21t-45.5 -48t-71.5 -57t-100 -48t-122.5 -21q-126 0 -212.5 70t-86.5 199zM248 287q0 -56 32 -87.5t97 -31.5q99 0 187.5 91.5 t115.5 195.5l8 32h-45q-36 0 -71.5 -2.5t-83.5 -9t-88 -21t-75.5 -35.5t-56 -55t-20.5 -77zM324 1174l245 278h267l133 -278h-209l-70 165h-4l-135 -165h-227z" />
<glyph unicode="&#xe3;" d="M-10 244q0 91 46 163t117.5 115.5t166.5 72t183.5 39.5t178.5 11h37l6 33q6 27 6 53q0 62 -42.5 95.5t-123.5 33.5q-102 0 -213 -47q-44 -17 -98 -49l-59 192q59 35 124 58q142 55 295 55q73 0 137 -16.5t119 -51t87 -96.5t32 -145q0 -64 -43 -254.5t-43 -231.5 q0 -45 22.5 -64.5t65.5 -19.5q21 0 33 3q6 2 12 2l-37 -195q-3 -1 -12.5 -2t-13.5 -2q-18 -2 -82 -2q-225 0 -244 176h-4q0 -2 -14.5 -21t-45.5 -48t-71.5 -57t-100 -48t-122.5 -21q-126 0 -212.5 70t-86.5 199zM248 287q0 -56 32 -87.5t97 -31.5q99 0 187.5 91.5 t115.5 195.5l8 32h-45q-36 0 -71.5 -2.5t-83.5 -9t-88 -21t-75.5 -35.5t-56 -55t-20.5 -77zM299 1176q26 135 94 207.5t166 72.5q40 0 71 -13.5t49.5 -33t34.5 -38.5t34 -32.5t40 -13.5q69 0 97 125h182q-25 -133 -93.5 -207t-166.5 -74q-39 0 -70 13.5t-50 32.5t-35.5 38.5 t-34.5 33t-39 13.5q-71 0 -97 -124h-182z" />
<glyph unicode="&#xe4;" d="M-10 244q0 91 46 163t117.5 115.5t166.5 72t183.5 39.5t178.5 11h37l6 33q6 27 6 53q0 62 -42.5 95.5t-123.5 33.5q-102 0 -213 -47q-44 -17 -98 -49l-59 192q59 35 124 58q142 55 295 55q73 0 137 -16.5t119 -51t87 -96.5t32 -145q0 -64 -43 -254.5t-43 -231.5 q0 -45 22.5 -64.5t65.5 -19.5q21 0 33 3q6 2 12 2l-37 -195q-3 -1 -12.5 -2t-13.5 -2q-18 -2 -82 -2q-225 0 -244 176h-4q0 -2 -14.5 -21t-45.5 -48t-71.5 -57t-100 -48t-122.5 -21q-126 0 -212.5 70t-86.5 199zM248 287q0 -56 32 -87.5t97 -31.5q99 0 187.5 91.5 t115.5 195.5l8 32h-45q-36 0 -71.5 -2.5t-83.5 -9t-88 -21t-75.5 -35.5t-56 -55t-20.5 -77zM336 1214l47 238h213l-49 -238h-211zM780 1214l49 238h213l-49 -238h-213z" />
<glyph unicode="&#xe5;" d="M-10 244q0 91 46 163t117.5 115.5t166.5 72t183.5 39.5t178.5 11h37l6 33q6 27 6 53q0 62 -42.5 95.5t-123.5 33.5q-102 0 -213 -47q-44 -17 -98 -49l-59 192q59 35 124 58q142 55 295 55q73 0 137 -16.5t119 -51t87 -96.5t32 -145q0 -64 -43 -254.5t-43 -231.5 q0 -45 22.5 -64.5t65.5 -19.5q21 0 33 3q6 2 12 2l-37 -195q-3 -1 -12.5 -2t-13.5 -2q-18 -2 -82 -2q-225 0 -244 176h-4q0 -2 -14.5 -21t-45.5 -48t-71.5 -57t-100 -48t-122.5 -21q-126 0 -212.5 70t-86.5 199zM248 287q0 -56 32 -87.5t97 -31.5q99 0 187.5 91.5 t115.5 195.5l8 32h-45q-36 0 -71.5 -2.5t-83.5 -9t-88 -21t-75.5 -35.5t-56 -55t-20.5 -77zM481 1286q0 87 69.5 139t154.5 52q76 0 129 -39.5t53 -108.5q0 -85 -70.5 -135.5t-157.5 -50.5q-76 0 -127 37t-51 106zM610 1290q0 -55 58 -55q39 0 64.5 25.5t25.5 66.5 q0 57 -60 57q-36 0 -62 -26t-26 -68z" />
<glyph unicode="&#xe6;" horiz-adv-x="1757" d="M-4 256q0 67 23.5 123t62.5 95t93.5 69.5t112 48.5t123 29.5t121 15.5t111.5 4h74q8 41 8 78q0 141 -170 141q-112 0 -215 -47q-40 -17 -88 -49l-64 192q54 33 123 58q135 55 289 55q216 0 307 -149h4q152 149 357 149t311.5 -106.5t106.5 -290.5q0 -42 -17 -125 q-1 -4 -6.5 -27.5t-9.5 -34.5h-713q0 -10 -2 -16q-4 -28 -4 -37q0 -112 68.5 -178t189.5 -66q113 0 223 58q57 26 96 57l70 -190q-55 -39 -117 -68q-148 -70 -290 -70q-156 0 -267 60.5t-166 167.5h-4q-10 -19 -25.5 -41t-51.5 -57.5t-79 -62.5t-109.5 -47t-141.5 -20 q-140 0 -237 77t-97 204zM258 287q0 -47 34.5 -78t100.5 -31q99 0 182.5 86t106.5 189l6 30h-72q-42 0 -82.5 -3.5t-92.5 -15.5t-90.5 -32.5t-65.5 -57.5t-27 -87zM977 641h450q3 9 3 18v39q0 82 -45.5 126t-120.5 44q-99 0 -174.5 -60.5t-112.5 -166.5z" />
<glyph unicode="&#xe7;" horiz-adv-x="1157" d="M47 438q0 120 51 234.5t138 202t213.5 141t267.5 53.5q43 0 88 -5.5t93 -17t88 -32.5t70.5 -48.5t43.5 -68.5t4 -90l-25 -131h-225l14 65q7 50 -45.5 78.5t-128.5 28.5q-157 0 -270 -118t-113 -273q0 -117 72 -189.5t207 -72.5q124 0 248 65q50 26 100 66l70 -197 q-48 -42 -115 -76q-152 -78 -328 -78h-22l-39 -86q64 -5 105.5 -43.5t41.5 -99.5q0 -54 -27 -95t-70.5 -63.5t-91.5 -33.5t-97 -11q-51 0 -86 6q-8 1 -21 4.5t-16 4.5l24 127q3 -1 12 -4.5t15 -4.5q24 -6 65 -6q25 0 48.5 5t45 22t21.5 43q0 55 -106 55h-41l94 197 q-177 35 -275 154.5t-98 291.5z" />
<glyph unicode="&#xe8;" horiz-adv-x="1142" d="M49 424q0 175 78 323t218 235t310 87q203 0 309.5 -108t106.5 -287q0 -49 -16 -127l-19 -62h-719q0 -10 -2 -16q-4 -28 -4 -37q0 -106 70 -171.5t192 -65.5q118 0 226 57q55 25 98 57l70 -196q-51 -36 -119 -68q-148 -70 -291 -70q-237 0 -372.5 126.5t-135.5 322.5z M352 639h459q0 14 2 20q2 14 2 37q0 81 -45 126.5t-121 45.5q-98 0 -178.5 -62t-118.5 -167zM412 1452h270l168 -278h-219z" />
<glyph unicode="&#xe9;" horiz-adv-x="1142" d="M49 424q0 175 78 323t218 235t310 87q203 0 309.5 -108t106.5 -287q0 -49 -16 -127l-19 -62h-719q0 -10 -2 -16q-4 -28 -4 -37q0 -106 70 -171.5t192 -65.5q118 0 226 57q55 25 98 57l70 -196q-51 -36 -119 -68q-148 -70 -291 -70q-237 0 -372.5 126.5t-135.5 322.5z M352 639h459q0 14 2 20q2 14 2 37q0 81 -45 126.5t-121 45.5q-98 0 -178.5 -62t-118.5 -167zM557 1174l274 278h293l-329 -278h-238z" />
<glyph unicode="&#xea;" horiz-adv-x="1142" d="M49 424q0 175 78 323t218 235t310 87q203 0 309.5 -108t106.5 -287q0 -49 -16 -127l-19 -62h-719q0 -10 -2 -16q-4 -28 -4 -37q0 -106 70 -171.5t192 -65.5q118 0 226 57q55 25 98 57l70 -196q-51 -36 -119 -68q-148 -70 -291 -70q-237 0 -372.5 126.5t-135.5 322.5z M352 639h459q0 14 2 20q2 14 2 37q0 81 -45 126.5t-121 45.5q-98 0 -178.5 -62t-118.5 -167zM377 1174l246 278h266l133 -278h-209l-70 165h-4l-135 -165h-227z" />
<glyph unicode="&#xeb;" horiz-adv-x="1142" d="M49 424q0 175 78 323t218 235t310 87q203 0 309.5 -108t106.5 -287q0 -49 -16 -127l-19 -62h-719q0 -10 -2 -16q-4 -28 -4 -37q0 -106 70 -171.5t192 -65.5q118 0 226 57q55 25 98 57l70 -196q-51 -36 -119 -68q-148 -70 -291 -70q-237 0 -372.5 126.5t-135.5 322.5z M352 639h459q0 14 2 20q2 14 2 37q0 81 -45 126.5t-121 45.5q-98 0 -178.5 -62t-118.5 -167zM389 1214l47 238h213l-49 -238h-211zM834 1214l49 238h213l-49 -238h-213z" />
<glyph unicode="&#xec;" horiz-adv-x="692" d="M100 850l39 194h420l-137 -706q-8 -31 -8 -64q0 -45 22.5 -64.5t65.5 -19.5q21 0 33 3q6 2 12 2l-37 -195l-29 -4q-18 -2 -63 -2t-77.5 3t-72 15.5t-64.5 35t-42 64t-17 99.5q0 39 13 106l104 533h-162zM158 1452h270l168 -278h-219z" />
<glyph unicode="&#xed;" horiz-adv-x="692" d="M100 850l39 194h420l-137 -706q-8 -31 -8 -64q0 -45 22.5 -64.5t65.5 -19.5q21 0 33 3q6 2 12 2l-37 -195l-29 -4q-18 -2 -63 -2t-77.5 3t-72 15.5t-64.5 35t-42 64t-17 99.5q0 39 13 106l104 533h-162zM303 1174l275 278h292l-329 -278h-238z" />
<glyph unicode="&#xee;" horiz-adv-x="692" d="M100 850l39 194h420l-137 -706q-8 -31 -8 -64q0 -45 22.5 -64.5t65.5 -19.5q21 0 33 3q6 2 12 2l-37 -195l-29 -4q-18 -2 -63 -2t-77.5 3t-72 15.5t-64.5 35t-42 64t-17 99.5q0 39 13 106l104 533h-162zM123 1174l246 278h266l133 -278h-209l-70 165h-4l-135 -165h-227z " />
<glyph unicode="&#xef;" horiz-adv-x="692" d="M100 850l39 194h420l-137 -706q-8 -31 -8 -64q0 -45 22.5 -64.5t65.5 -19.5q21 0 33 3q6 2 12 2l-37 -195l-29 -4q-18 -2 -63 -2t-77.5 3t-72 15.5t-64.5 35t-42 64t-17 99.5q0 39 13 106l104 533h-162zM162 1214l49 240h213l-49 -240h-213zM551 1214l47 240h213 l-47 -240h-213z" />
<glyph unicode="&#xf0;" horiz-adv-x="1220" d="M45 399q0 102 41 200.5t113.5 177t183 127t238.5 48.5q83 0 157 -34q31 -13 56 -35h4q-17 68 -60 131.5t-104 111.5l-406 -159l15 131l270 106q-123 67 -238 94l107 189q237 -64 401 -180l334 131l-12 -131l-225 -88q93 -95 145.5 -224t52.5 -280q0 -89 -21 -185.5 t-69 -197t-117 -179t-175.5 -128.5t-233.5 -50q-111 0 -199.5 34t-144 92.5t-84.5 134.5t-29 163zM309 403q0 -92 48.5 -150t146.5 -58q96 0 174.5 60.5t118 145.5t39.5 170q0 81 -53.5 130t-149.5 49q-143 0 -233.5 -103t-90.5 -244z" />
<glyph unicode="&#xf1;" horiz-adv-x="1398" d="M104 0l158 805q6 45 -37 45h-116l36 194h275q117 0 117 -92q0 -19 -7.5 -56t-17.5 -60h4q6 15 25 40t56.5 59.5t83.5 63.5t113 49.5t138 20.5q137 0 215 -72.5t78 -210.5q0 -70 -42 -273t-42 -239q0 -47 22 -65.5t66 -18.5q21 0 33 3q6 2 12 2l-37 -195q-3 -1 -13 -2 t-14 -2q-18 -2 -77 -2q-39 0 -69.5 3t-68 16t-62.5 35t-42 63t-17 98t40 255.5t40 242.5q0 62 -31.5 93t-101.5 31q-131 0 -233.5 -109t-132.5 -263l-90 -459h-261zM479 1176q26 135 94 207.5t166 72.5q49 0 85.5 -20.5t54 -45t41 -45t49.5 -20.5q68 0 96 125h182 q-25 -133 -93.5 -207t-166.5 -74q-39 0 -70 13.5t-50 32.5t-35.5 38.5t-34.5 33t-39 13.5q-70 0 -96 -124h-183z" />
<glyph unicode="&#xf2;" horiz-adv-x="1288" d="M47 438q0 132 55.5 250.5t147 201t212.5 131t249 48.5q217 0 356 -129t139 -332q0 -178 -95.5 -325t-247 -227.5t-320.5 -80.5q-217 0 -356.5 128t-139.5 335zM311 451q0 -116 70 -185t182 -69q93 0 180 50t143 142.5t56 202.5q0 116 -70.5 186t-181.5 70 q-93 0 -180 -50.5t-143 -143.5t-56 -203zM459 1452h270l168 -278h-219z" />
<glyph unicode="&#xf3;" horiz-adv-x="1288" d="M47 438q0 132 55.5 250.5t147 201t212.5 131t249 48.5q217 0 356 -129t139 -332q0 -178 -95.5 -325t-247 -227.5t-320.5 -80.5q-217 0 -356.5 128t-139.5 335zM311 451q0 -116 70 -185t182 -69q93 0 180 50t143 142.5t56 202.5q0 116 -70.5 186t-181.5 70 q-93 0 -180 -50.5t-143 -143.5t-56 -203zM602 1174l275 278h292l-329 -278h-238z" />
<glyph unicode="&#xf4;" horiz-adv-x="1288" d="M47 438q0 132 55.5 250.5t147 201t212.5 131t249 48.5q217 0 356 -129t139 -332q0 -178 -95.5 -325t-247 -227.5t-320.5 -80.5q-217 0 -356.5 128t-139.5 335zM311 451q0 -116 70 -185t182 -69q93 0 180 50t143 142.5t56 202.5q0 116 -70.5 186t-181.5 70 q-93 0 -180 -50.5t-143 -143.5t-56 -203zM422 1174l246 278h266l133 -278h-209l-70 165h-4l-135 -165h-227z" />
<glyph unicode="&#xf5;" horiz-adv-x="1288" d="M47 438q0 132 55.5 250.5t147 201t212.5 131t249 48.5q217 0 356 -129t139 -332q0 -178 -95.5 -325t-247 -227.5t-320.5 -80.5q-217 0 -356.5 128t-139.5 335zM311 451q0 -116 70 -185t182 -69q93 0 180 50t143 142.5t56 202.5q0 116 -70.5 186t-181.5 70 q-93 0 -180 -50.5t-143 -143.5t-56 -203zM397 1176q26 135 94 207.5t166 72.5q49 0 85.5 -20.5t54 -45t41 -45t49.5 -20.5q68 0 96 125h182q-25 -133 -93.5 -207t-166.5 -74q-39 0 -70 13.5t-50 32.5t-35.5 38.5t-34.5 33t-39 13.5q-70 0 -96 -124h-183z" />
<glyph unicode="&#xf6;" horiz-adv-x="1288" d="M47 438q0 132 55.5 250.5t147 201t212.5 131t249 48.5q217 0 356 -129t139 -332q0 -178 -95.5 -325t-247 -227.5t-320.5 -80.5q-217 0 -356.5 128t-139.5 335zM311 451q0 -116 70 -185t182 -69q93 0 180 50t143 142.5t56 202.5q0 116 -70.5 186t-181.5 70 q-93 0 -180 -50.5t-143 -143.5t-56 -203zM434 1214l47 238h213l-49 -238h-211zM879 1214l49 238h213l-49 -238h-213z" />
<glyph unicode="&#xf7;" horiz-adv-x="1267" d="M92 483v203h1069v-203h-1069zM510 55v221h233v-221h-233zM510 895v221h233v-221h-233z" />
<glyph unicode="&#xf8;" horiz-adv-x="1288" d="M47 438q0 175 93.5 322t241 228t310.5 81q168 0 297 -76l117 125l94 -80l-115 -123q121 -134 121 -307q0 -107 -36 -206t-98.5 -175.5t-144 -134t-176 -87.5t-190.5 -30q-153 0 -282 66l-119 -125l-92 82l108 117q-129 132 -129 323zM311 451q0 -79 45 -144l467 506 q-59 35 -133 35q-93 0 -180 -50.5t-143 -143.5t-56 -203zM446 223q50 -26 117 -26q93 0 180 50t143 142.5t56 202.5q0 68 -39 127z" />
<glyph unicode="&#xf9;" horiz-adv-x="1390" d="M88 850l39 194h422l-121 -618q-12 -70 -12 -96q0 -62 30.5 -92.5t100.5 -30.5q87 0 165.5 56t128 138.5t66.5 171.5l54 277h-162l39 194h422l-140 -706q-6 -30 -6 -64q0 -45 22.5 -64.5t65.5 -19.5q22 0 31 3q6 2 12 2l-37 -195l-30 -4q-23 -2 -80 -2q-238 0 -238 215h-4 q-67 -99 -170 -166.5t-240 -67.5q-132 0 -216.5 70.5t-84.5 210.5q0 37 15 125l90 469h-162zM467 1452h270l168 -278h-219z" />
<glyph unicode="&#xfa;" horiz-adv-x="1390" d="M88 850l39 194h422l-121 -618q-12 -70 -12 -96q0 -62 30.5 -92.5t100.5 -30.5q87 0 165.5 56t128 138.5t66.5 171.5l54 277h-162l39 194h422l-140 -706q-6 -30 -6 -64q0 -45 22.5 -64.5t65.5 -19.5q22 0 31 3q6 2 12 2l-37 -195l-30 -4q-23 -2 -80 -2q-238 0 -238 215h-4 q-67 -99 -170 -166.5t-240 -67.5q-132 0 -216.5 70.5t-84.5 210.5q0 37 15 125l90 469h-162zM612 1174l275 278h293l-330 -278h-238z" />
<glyph unicode="&#xfb;" horiz-adv-x="1390" d="M88 850l39 194h422l-121 -618q-12 -70 -12 -96q0 -62 30.5 -92.5t100.5 -30.5q87 0 165.5 56t128 138.5t66.5 171.5l54 277h-162l39 194h422l-140 -706q-6 -30 -6 -64q0 -45 22.5 -64.5t65.5 -19.5q22 0 31 3q6 2 12 2l-37 -195l-30 -4q-23 -2 -80 -2q-238 0 -238 215h-4 q-67 -99 -170 -166.5t-240 -67.5q-132 0 -216.5 70.5t-84.5 210.5q0 37 15 125l90 469h-162zM432 1174l246 278h266l133 -278h-209l-69 165h-4l-136 -165h-227z" />
<glyph unicode="&#xfc;" horiz-adv-x="1390" d="M88 850l39 194h422l-121 -618q-12 -70 -12 -96q0 -62 30.5 -92.5t100.5 -30.5q87 0 165.5 56t128 138.5t66.5 171.5l54 277h-162l39 194h422l-140 -706q-6 -30 -6 -64q0 -45 22.5 -64.5t65.5 -19.5q22 0 31 3q6 2 12 2l-37 -195l-30 -4q-23 -2 -80 -2q-238 0 -238 215h-4 q-67 -99 -170 -166.5t-240 -67.5q-132 0 -216.5 70.5t-84.5 210.5q0 37 15 125l90 469h-162zM442 1214l47 238h213l-49 -238h-211zM887 1214l49 238h213l-49 -238h-213z" />
<glyph unicode="&#xfd;" horiz-adv-x="1241" d="M-139 -354l116 182q17 -14 39 -23q39 -22 111 -22q62 0 117 32t90 89l41 65l-187 881h-125l37 194h506l-37 -194h-123l89 -528q8 -32 4 -74l-4 -35h6l14 35q11 30 35 74l293 528h-121l39 194h499l-36 -194h-121l-576 -985q-93 -158 -202.5 -226.5t-243.5 -68.5 q-96 0 -193 37q-32 12 -67 39zM575 1174l275 278h293l-330 -278h-238z" />
<glyph unicode="&#xfe;" horiz-adv-x="1280" d="M-35 -410l324 1670h-160l37 194h418l-90 -461q-3 -31 -13 -53l-8 -22h4q56 69 140 110t180 41q187 0 292 -118t105 -322q0 -140 -48.5 -264t-127.5 -208t-182 -133t-211 -49q-93 0 -174.5 39.5t-122.5 114.5h-4l-5 -27q-6 -50 -10 -67l-88 -445h-256zM389 430 q0 -103 52 -169t153 -66q59 0 118 28.5t107.5 80t78.5 132t30 174.5q0 111 -53.5 173.5t-151.5 62.5q-131 0 -232.5 -124t-101.5 -292z" />
<glyph unicode="&#xff;" horiz-adv-x="1241" d="M-139 -354l116 182q17 -14 39 -23q39 -22 111 -22q62 0 117 32t90 89l41 65l-187 881h-125l37 194h506l-37 -194h-123l89 -528q8 -32 4 -74l-4 -35h6l14 35q11 30 35 74l293 528h-121l39 194h499l-36 -194h-121l-576 -985q-93 -158 -202.5 -226.5t-243.5 -68.5 q-96 0 -193 37q-32 12 -67 39zM408 1214l47 238h213l-50 -238h-210zM852 1214l49 238h213l-49 -238h-213z" />
<glyph unicode="&#x152;" horiz-adv-x="2029" d="M102 610q0 115 33.5 226.5t92 205.5t141 174t177.5 135.5t204 87t219 31.5q79 0 172 -8t137 -8h786l-73 -375h-217l32 160h-413l-80 -401h473l-43 -213h-471l-80 -410h444l31 160h217l-74 -375h-788q-36 0 -118 -9t-144 -9q-193 0 -343.5 80.5t-232.5 223.5t-82 324z M375 614q0 -182 110 -296.5t291 -114.5q71 0 107 8l43 6l196 1018l-39 8q-33 8 -102 8q-118 0 -229 -51t-194 -136t-133 -203.5t-50 -246.5z" />
<glyph unicode="&#x153;" horiz-adv-x="2025" d="M49 438q0 132 54 250.5t143 201t207.5 131t244.5 48.5q134 0 238.5 -57t167.5 -158h4q81 101 190.5 158t239.5 57q203 0 309.5 -108t106.5 -287q0 -46 -17 -129l-18 -62h-719q0 -10 -2 -16t-2 -37q0 -105 69 -169t191 -64q117 0 225 57q58 26 99 57l69 -198 q-56 -40 -116 -68q-148 -70 -291 -70q-147 0 -253.5 57t-164.5 163h-4q-91 -105 -211.5 -162.5t-249.5 -57.5q-226 0 -368 127.5t-142 335.5zM313 451q0 -116 70 -185t182 -69q93 0 180 50t143 142.5t56 202.5q0 116 -70.5 186t-181.5 70q-73 0 -142 -30t-121.5 -82 t-84 -126.5t-31.5 -158.5zM1237 641h459q0 12 2 18q2 10 2 37q0 80 -45.5 126t-120.5 46q-99 0 -179 -61t-118 -166z" />
<glyph unicode="&#x178;" horiz-adv-x="1347" d="M145 1251l39 203h529l-39 -203h-139l145 -381q3 -7 7 -22.5t7 -22.5q4 -12 4 -20h4q4 11 13 20q12 21 33 45l296 381h-141l39 203h549l-39 -203h-131l-514 -643l-80 -407h176l-39 -201h-618l39 201h174l80 407l-263 643h-131zM541 1591l47 238h213l-49 -238h-211z M985 1591l49 238h213l-49 -238h-213z" />
<glyph unicode="&#x2c6;" horiz-adv-x="1011" d="M35 1550l246 279h266l133 -279h-209l-70 166h-4l-135 -166h-227z" />
<glyph unicode="&#x2dc;" horiz-adv-x="1009" d="M4 1552q26 135 94 208t166 73q49 0 85.5 -20.5t54 -45t41 -45t49.5 -20.5q68 0 96 125h182q-25 -133 -93.5 -207t-166.5 -74q-39 0 -70 13.5t-50 33t-35.5 38.5t-34.5 32.5t-39 13.5q-71 0 -97 -125h-182z" />
<glyph unicode="&#x2000;" horiz-adv-x="926" />
<glyph unicode="&#x2001;" horiz-adv-x="1853" />
<glyph unicode="&#x2002;" horiz-adv-x="926" />
<glyph unicode="&#x2003;" horiz-adv-x="1853" />
<glyph unicode="&#x2004;" horiz-adv-x="617" />
<glyph unicode="&#x2005;" horiz-adv-x="463" />
<glyph unicode="&#x2006;" horiz-adv-x="308" />
<glyph unicode="&#x2007;" horiz-adv-x="308" />
<glyph unicode="&#x2008;" horiz-adv-x="231" />
<glyph unicode="&#x2009;" horiz-adv-x="370" />
<glyph unicode="&#x200a;" horiz-adv-x="102" />
<glyph unicode="&#x2010;" horiz-adv-x="954" d="M141 471l43 227h617l-43 -227h-617z" />
<glyph unicode="&#x2011;" horiz-adv-x="954" d="M141 471l43 227h617l-43 -227h-617z" />
<glyph unicode="&#x2012;" horiz-adv-x="954" d="M141 471l43 227h617l-43 -227h-617z" />
<glyph unicode="&#x2013;" horiz-adv-x="1472" d="M143 483l39 203h1133l-37 -203h-1135z" />
<glyph unicode="&#x2014;" horiz-adv-x="1882" d="M143 483l39 203h1542l-36 -203h-1545z" />
<glyph unicode="&#x2018;" horiz-adv-x="507" d="M160 1004l250 475h192l-192 -475h-250z" />
<glyph unicode="&#x2019;" horiz-adv-x="497" d="M170 1004l192 475h250l-250 -475h-192z" />
<glyph unicode="&#x201a;" horiz-adv-x="555" d="M-84 -211l195 475h249l-249 -475h-195z" />
<glyph unicode="&#x201c;" horiz-adv-x="849" d="M160 1004l250 475h192l-192 -475h-250zM502 1004l250 475h192l-192 -475h-250z" />
<glyph unicode="&#x201d;" horiz-adv-x="839" d="M170 1004l192 475h250l-250 -475h-192zM510 1004l195 475h249l-249 -475h-195z" />
<glyph unicode="&#x201e;" horiz-adv-x="897" d="M-84 -211l195 475h249l-249 -475h-195zM258 -211l195 475h249l-251 -475h-193z" />
<glyph unicode="&#x2022;" horiz-adv-x="876" d="M92 596q0 141 100 241.5t242 100.5q141 0 241.5 -100.5t100.5 -241.5t-100.5 -241.5t-241.5 -100.5q-142 0 -242 100.5t-100 241.5z" />
<glyph unicode="&#x2026;" horiz-adv-x="1712" d="M31 0l49 262h254l-51 -262h-252zM612 0l52 262h254l-52 -262h-254zM1196 0l51 262h254l-51 -262h-254z" />
<glyph unicode="&#x202f;" horiz-adv-x="370" />
<glyph unicode="&#x2039;" horiz-adv-x="751" d="M70 580l391 419h258l-412 -432l264 -409h-237z" />
<glyph unicode="&#x203a;" horiz-adv-x="757" d="M25 158l411 432l-262 409h238l264 -421l-391 -420h-260z" />
<glyph unicode="&#x205f;" horiz-adv-x="463" />
<glyph unicode="&#x20ac;" horiz-adv-x="1243" d="M61 498l31 149h113q13 108 26 168h-108l31 150h127q105 230 311.5 372t454.5 142q93 0 182 -19q46 -10 74 -20l-103 -213l-49 10q-58 10 -111 10q-146 0 -268.5 -75t-198.5 -207h527l-64 -150h-530q-24 -79 -27 -168h496l-62 -149h-413q24 -133 114 -210t240 -77 q67 0 135 14l60 15l2 -232q-8 -3 -18 -5.5t-23 -5.5t-21 -5q-83 -17 -158 -17q-250 0 -419.5 143t-198.5 380h-152z" />
<glyph unicode="&#x2122;" horiz-adv-x="2142" d="M205 1282v172h801v-172h-301v-735h-197v735h-303zM1061 547l72 907h180l188 -428q5 -9 11 -30t8 -25l8 -31h4q4 22 8 31l21 55l188 428h180l70 -907h-197l-33 467v43q0 11 3 20h-5l-159 -364h-154l-160 364h-4q2 -6 2 -20v-43l-37 -467h-194z" />
<glyph unicode="&#xe000;" horiz-adv-x="1044" d="M0 0v1044h1044v-1044h-1044z" />
</font>
</defs>
</svg>
